<?xml version="1.0" encoding="utf-8" standalone="no"?>
<!DOCTYPE svg PUBLIC "-//W3C//DTD SVG 1.1//EN"
  "http://www.w3.org/Graphics/SVG/1.1/DTD/svg11.dtd">
<svg xmlns:xlink="http://www.w3.org/1999/xlink" width="1080pt" height="360pt" viewBox="0 0 1080 360" xmlns="http://www.w3.org/2000/svg" version="1.1">
 <metadata>
  <rdf:RDF xmlns:dc="http://purl.org/dc/elements/1.1/" xmlns:cc="http://creativecommons.org/ns#" xmlns:rdf="http://www.w3.org/1999/02/22-rdf-syntax-ns#">
   <cc:Work>
    <dc:type rdf:resource="http://purl.org/dc/dcmitype/StillImage"/>
    <dc:date>2024-09-26T21:18:34.821200</dc:date>
    <dc:format>image/svg+xml</dc:format>
    <dc:creator>
     <cc:Agent>
      <dc:title>Matplotlib v3.7.5, https://matplotlib.org/</dc:title>
     </cc:Agent>
    </dc:creator>
   </cc:Work>
  </rdf:RDF>
 </metadata>
 <defs>
  <style type="text/css">*{stroke-linejoin: round; stroke-linecap: butt}</style>
 </defs>
 <g id="figure_1">
  <g id="patch_1">
   <path d="M 0 360 
L 1080 360 
L 1080 0 
L 0 0 
z
" style="fill: #ffffff"/>
  </g>
  <g id="axes_1">
   <g id="patch_2">
    <path d="M 135 320.4 
L 515.454545 320.4 
L 515.454545 43.2 
L 135 43.2 
z
" style="fill: #ffffff"/>
   </g>
   <g id="PolyCollection_1">
    <defs>
     <path id="me03f62ba22" d="M 163.783289 -39.655485 
L 163.783289 -39.6 
L 165.392556 -39.6 
L 167.001823 -39.6 
L 168.61109 -39.6 
L 170.220357 -39.6 
L 171.829624 -39.6 
L 173.438891 -39.6 
L 175.048158 -39.6 
L 176.657425 -39.6 
L 178.266692 -39.6 
L 179.875959 -39.6 
L 181.485226 -39.6 
L 183.094493 -39.6 
L 184.70376 -39.6 
L 186.313027 -39.6 
L 187.922294 -39.6 
L 189.531561 -39.6 
L 191.140828 -39.6 
L 192.750095 -39.6 
L 194.359361 -39.6 
L 195.968628 -39.6 
L 197.577895 -39.6 
L 199.187162 -39.6 
L 200.796429 -39.6 
L 202.405696 -39.6 
L 204.014963 -39.6 
L 205.62423 -39.6 
L 207.233497 -39.6 
L 208.842764 -39.6 
L 210.452031 -39.6 
L 212.061298 -39.6 
L 213.670565 -39.6 
L 215.279832 -39.6 
L 216.889099 -39.6 
L 218.498366 -39.6 
L 220.107633 -39.6 
L 221.7169 -39.6 
L 223.326167 -39.6 
L 224.935434 -39.6 
L 226.544701 -39.6 
L 228.153968 -39.6 
L 229.763235 -39.6 
L 231.372502 -39.6 
L 232.981769 -39.6 
L 234.591036 -39.6 
L 236.200303 -39.6 
L 237.809569 -39.6 
L 239.418836 -39.6 
L 241.028103 -39.6 
L 242.63737 -39.6 
L 244.246637 -39.6 
L 245.855904 -39.6 
L 247.465171 -39.6 
L 249.074438 -39.6 
L 250.683705 -39.6 
L 252.292972 -39.6 
L 253.902239 -39.6 
L 255.511506 -39.6 
L 257.120773 -39.6 
L 258.73004 -39.6 
L 260.339307 -39.6 
L 261.948574 -39.6 
L 263.557841 -39.6 
L 265.167108 -39.6 
L 266.776375 -39.6 
L 268.385642 -39.6 
L 269.994909 -39.6 
L 271.604176 -39.6 
L 273.213443 -39.6 
L 274.82271 -39.6 
L 276.431977 -39.6 
L 278.041244 -39.6 
L 279.650511 -39.6 
L 281.259778 -39.6 
L 282.869044 -39.6 
L 284.478311 -39.6 
L 286.087578 -39.6 
L 287.696845 -39.6 
L 289.306112 -39.6 
L 290.915379 -39.6 
L 292.524646 -39.6 
L 294.133913 -39.6 
L 295.74318 -39.6 
L 297.352447 -39.6 
L 298.961714 -39.6 
L 300.570981 -39.6 
L 302.180248 -39.6 
L 303.789515 -39.6 
L 305.398782 -39.6 
L 307.008049 -39.6 
L 308.617316 -39.6 
L 310.226583 -39.6 
L 311.83585 -39.6 
L 313.445117 -39.6 
L 315.054384 -39.6 
L 316.663651 -39.6 
L 318.272918 -39.6 
L 319.882185 -39.6 
L 321.491452 -39.6 
L 323.100719 -39.6 
L 324.709986 -39.6 
L 326.319252 -39.6 
L 327.928519 -39.6 
L 329.537786 -39.6 
L 331.147053 -39.6 
L 332.75632 -39.6 
L 334.365587 -39.6 
L 335.974854 -39.6 
L 337.584121 -39.6 
L 339.193388 -39.6 
L 340.802655 -39.6 
L 342.411922 -39.6 
L 344.021189 -39.6 
L 345.630456 -39.6 
L 347.239723 -39.6 
L 348.84899 -39.6 
L 350.458257 -39.6 
L 352.067524 -39.6 
L 353.676791 -39.6 
L 355.286058 -39.6 
L 356.895325 -39.6 
L 358.504592 -39.6 
L 360.113859 -39.6 
L 361.723126 -39.6 
L 363.332393 -39.6 
L 364.94166 -39.6 
L 366.550927 -39.6 
L 368.160194 -39.6 
L 369.769461 -39.6 
L 371.378727 -39.6 
L 372.987994 -39.6 
L 374.597261 -39.6 
L 376.206528 -39.6 
L 377.815795 -39.6 
L 379.425062 -39.6 
L 381.034329 -39.6 
L 382.643596 -39.6 
L 384.252863 -39.6 
L 385.86213 -39.6 
L 387.471397 -39.6 
L 389.080664 -39.6 
L 390.689931 -39.6 
L 392.299198 -39.6 
L 393.908465 -39.6 
L 395.517732 -39.6 
L 397.126999 -39.6 
L 398.736266 -39.6 
L 400.345533 -39.6 
L 401.9548 -39.6 
L 403.564067 -39.6 
L 405.173334 -39.6 
L 406.782601 -39.6 
L 408.391868 -39.6 
L 410.001135 -39.6 
L 411.610402 -39.6 
L 413.219669 -39.6 
L 414.828935 -39.6 
L 416.438202 -39.6 
L 418.047469 -39.6 
L 419.656736 -39.6 
L 421.266003 -39.6 
L 422.87527 -39.6 
L 424.484537 -39.6 
L 426.093804 -39.6 
L 427.703071 -39.6 
L 429.312338 -39.6 
L 430.921605 -39.6 
L 432.530872 -39.6 
L 434.140139 -39.6 
L 435.749406 -39.6 
L 437.358673 -39.6 
L 438.96794 -39.6 
L 440.577207 -39.6 
L 442.186474 -39.6 
L 443.795741 -39.6 
L 445.405008 -39.6 
L 447.014275 -39.6 
L 448.623542 -39.6 
L 450.232809 -39.6 
L 451.842076 -39.6 
L 453.451343 -39.6 
L 455.06061 -39.6 
L 456.669877 -39.6 
L 458.279144 -39.6 
L 459.88841 -39.6 
L 461.497677 -39.6 
L 463.106944 -39.6 
L 464.716211 -39.6 
L 466.325478 -39.6 
L 467.934745 -39.6 
L 469.544012 -39.6 
L 471.153279 -39.6 
L 472.762546 -39.6 
L 474.371813 -39.6 
L 475.98108 -39.6 
L 477.590347 -39.6 
L 479.199614 -39.6 
L 480.808881 -39.6 
L 482.418148 -39.6 
L 484.027415 -39.6 
L 484.027415 -39.628644 
L 484.027415 -39.628644 
L 482.418148 -39.647315 
L 480.808881 -39.676301 
L 479.199614 -39.720138 
L 477.590347 -39.784715 
L 475.98108 -39.877367 
L 474.371813 -40.006815 
L 472.762546 -40.182903 
L 471.153279 -40.416066 
L 469.544012 -40.716518 
L 467.934745 -41.093167 
L 466.325478 -41.552357 
L 464.716211 -42.096556 
L 463.106944 -42.723206 
L 461.497677 -43.423948 
L 459.88841 -44.184445 
L 458.279144 -44.984956 
L 456.669877 -45.801698 
L 455.06061 -46.608927 
L 453.451343 -47.38147 
L 451.842076 -48.097359 
L 450.232809 -48.740142 
L 448.623542 -49.300462 
L 447.014275 -49.776617 
L 445.405008 -50.174003 
L 443.795741 -50.503568 
L 442.186474 -50.779621 
L 440.577207 -51.017488 
L 438.96794 -51.231542 
L 437.358673 -51.434066 
L 435.749406 -51.635178 
L 434.140139 -51.843824 
L 432.530872 -52.069543 
L 430.921605 -52.324535 
L 429.312338 -52.625449 
L 427.703071 -52.994389 
L 426.093804 -53.458796 
L 424.484537 -54.050127 
L 422.87527 -54.801538 
L 421.266003 -55.744992 
L 419.656736 -56.908321 
L 418.047469 -58.312759 
L 416.438202 -59.971342 
L 414.828935 -61.888325 
L 413.219669 -64.059594 
L 411.610402 -66.473854 
L 410.001135 -69.114284 
L 408.391868 -71.960367 
L 406.782601 -74.989658 
L 405.173334 -78.179356 
L 403.564067 -81.507618 
L 401.9548 -84.954577 
L 400.345533 -88.50304 
L 398.736266 -92.138796 
L 397.126999 -95.850487 
L 395.517732 -99.629037 
L 393.908465 -103.466762 
L 392.299198 -107.356418 
L 390.689931 -111.290586 
L 389.080664 -115.261801 
L 387.471397 -119.263773 
L 385.86213 -123.293758 
L 384.252863 -127.355829 
L 382.643596 -131.464383 
L 381.034329 -135.646958 
L 379.425062 -139.945295 
L 377.815795 -144.41378 
L 376.206528 -149.114786 
L 374.597261 -154.111106 
L 372.987994 -159.456346 
L 371.378727 -165.1848 
L 369.769461 -171.302678 
L 368.160194 -177.782543 
L 366.550927 -184.562422 
L 364.94166 -191.550235 
L 363.332393 -198.633241 
L 361.723126 -205.691187 
L 360.113859 -212.61109 
L 358.504592 -219.301176 
L 356.895325 -225.701596 
L 355.286058 -231.790081 
L 353.676791 -237.581593 
L 352.067524 -243.122069 
L 350.458257 -248.477392 
L 348.84899 -253.71946 
L 347.239723 -258.911636 
L 345.630456 -264.095825 
L 344.021189 -269.282976 
L 342.411922 -274.448157 
L 340.802655 -279.530487 
L 339.193388 -284.43751 
L 337.584121 -289.05296 
L 335.974854 -293.246605 
L 334.365587 -296.88477 
L 332.75632 -299.840301 
L 331.147053 -302.001036 
L 329.537786 -303.27614 
L 327.928519 -303.6 
L 326.319252 -302.933619 
L 324.709986 -301.263671 
L 323.100719 -298.599582 
L 321.491452 -294.969171 
L 319.882185 -290.413542 
L 318.272918 -284.982009 
L 316.663651 -278.72782 
L 315.054384 -271.705301 
L 313.445117 -263.968794 
L 311.83585 -255.573382 
L 310.226583 -246.577064 
L 308.617316 -237.043706 
L 307.008049 -227.045951 
L 305.398782 -216.667249 
L 303.789515 -206.002395 
L 302.180248 -195.156234 
L 300.570981 -184.240605 
L 298.961714 -173.369968 
L 297.352447 -162.656366 
L 295.74318 -152.204544 
L 294.133913 -142.107902 
L 292.524646 -132.445778 
L 290.915379 -123.282208 
L 289.306112 -114.666011 
L 287.696845 -106.631789 
L 286.087578 -99.201319 
L 284.478311 -92.384895 
L 282.869044 -86.182304 
L 281.259778 -80.58341 
L 279.650511 -75.56851 
L 278.041244 -71.108796 
L 276.431977 -67.167258 
L 274.82271 -63.700261 
L 273.213443 -60.659826 
L 271.604176 -57.996427 
L 269.994909 -55.661916 
L 268.385642 -53.61213 
L 266.776375 -51.808745 
L 265.167108 -50.220119 
L 263.557841 -48.821066 
L 261.948574 -47.591744 
L 260.339307 -46.515999 
L 258.73004 -45.579616 
L 257.120773 -44.768861 
L 255.511506 -44.069597 
L 253.902239 -43.467087 
L 252.292972 -42.946402 
L 250.683705 -42.493215 
L 249.074438 -42.094714 
L 247.465171 -41.740361 
L 245.855904 -41.422316 
L 244.246637 -41.135436 
L 242.63737 -40.876906 
L 241.028103 -40.645587 
L 239.418836 -40.441273 
L 237.809569 -40.263991 
L 236.200303 -40.113473 
L 234.591036 -39.988852 
L 232.981769 -39.888599 
L 231.372502 -39.81067 
L 229.763235 -39.752781 
L 228.153968 -39.712777 
L 226.544701 -39.68901 
L 224.935434 -39.680712 
L 223.326167 -39.688303 
L 221.7169 -39.713628 
L 220.107633 -39.760089 
L 218.498366 -39.832618 
L 216.889099 -39.937467 
L 215.279832 -40.08174 
L 213.670565 -40.272645 
L 212.061298 -40.516465 
L 210.452031 -40.81729 
L 208.842764 -41.175657 
L 207.233497 -41.587268 
L 205.62423 -42.042046 
L 204.014963 -42.52378 
L 202.405696 -43.010556 
L 200.796429 -43.476091 
L 199.187162 -43.891907 
L 197.577895 -44.230139 
L 195.968628 -44.466595 
L 194.359361 -44.583605 
L 192.750095 -44.572209 
L 191.140828 -44.433285 
L 189.531561 -44.17744 
L 187.922294 -43.823673 
L 186.313027 -43.39704 
L 184.70376 -42.925733 
L 183.094493 -42.438029 
L 181.485226 -41.959574 
L 179.875959 -41.511339 
L 178.266692 -41.108443 
L 176.657425 -40.759866 
L 175.048158 -40.468908 
L 173.438891 -40.234201 
L 171.829624 -40.05099 
L 170.220357 -39.91246 
L 168.61109 -39.810916 
L 167.001823 -39.738712 
L 165.392556 -39.68888 
L 163.783289 -39.655485 
z
" style="stroke: #ff7f0e"/>
    </defs>
    <g clip-path="url(#pca1bd21775)">
     <use xlink:href="#me03f62ba22" x="0" y="360" style="fill: #ff7f0e; fill-opacity: 0.25; stroke: #ff7f0e"/>
    </g>
   </g>
   <g id="PolyCollection_2">
    <defs>
     <path id="m5fed717463" d="M 152.293388 -39.64986 
L 152.293388 -39.6 
L 154.031417 -39.6 
L 155.769446 -39.6 
L 157.507475 -39.6 
L 159.245504 -39.6 
L 160.983533 -39.6 
L 162.721562 -39.6 
L 164.459591 -39.6 
L 166.19762 -39.6 
L 167.935649 -39.6 
L 169.673678 -39.6 
L 171.411707 -39.6 
L 173.149736 -39.6 
L 174.887765 -39.6 
L 176.625794 -39.6 
L 178.363823 -39.6 
L 180.101852 -39.6 
L 181.839881 -39.6 
L 183.57791 -39.6 
L 185.315939 -39.6 
L 187.053968 -39.6 
L 188.791997 -39.6 
L 190.530026 -39.6 
L 192.268055 -39.6 
L 194.006084 -39.6 
L 195.744113 -39.6 
L 197.482142 -39.6 
L 199.220171 -39.6 
L 200.9582 -39.6 
L 202.696229 -39.6 
L 204.434258 -39.6 
L 206.172287 -39.6 
L 207.910316 -39.6 
L 209.648345 -39.6 
L 211.386374 -39.6 
L 213.124403 -39.6 
L 214.862432 -39.6 
L 216.600461 -39.6 
L 218.33849 -39.6 
L 220.076519 -39.6 
L 221.814548 -39.6 
L 223.552577 -39.6 
L 225.290606 -39.6 
L 227.028635 -39.6 
L 228.766664 -39.6 
L 230.504693 -39.6 
L 232.242722 -39.6 
L 233.980751 -39.6 
L 235.71878 -39.6 
L 237.456809 -39.6 
L 239.194838 -39.6 
L 240.932867 -39.6 
L 242.670896 -39.6 
L 244.408925 -39.6 
L 246.146954 -39.6 
L 247.884983 -39.6 
L 249.623012 -39.6 
L 251.361041 -39.6 
L 253.09907 -39.6 
L 254.837099 -39.6 
L 256.575128 -39.6 
L 258.313157 -39.6 
L 260.051186 -39.6 
L 261.789215 -39.6 
L 263.527244 -39.6 
L 265.265273 -39.6 
L 267.003302 -39.6 
L 268.741331 -39.6 
L 270.47936 -39.6 
L 272.217389 -39.6 
L 273.955418 -39.6 
L 275.693447 -39.6 
L 277.431476 -39.6 
L 279.169505 -39.6 
L 280.907534 -39.6 
L 282.645563 -39.6 
L 284.383592 -39.6 
L 286.12162 -39.6 
L 287.859649 -39.6 
L 289.597678 -39.6 
L 291.335707 -39.6 
L 293.073736 -39.6 
L 294.811765 -39.6 
L 296.549794 -39.6 
L 298.287823 -39.6 
L 300.025852 -39.6 
L 301.763881 -39.6 
L 303.50191 -39.6 
L 305.239939 -39.6 
L 306.977968 -39.6 
L 308.715997 -39.6 
L 310.454026 -39.6 
L 312.192055 -39.6 
L 313.930084 -39.6 
L 315.668113 -39.6 
L 317.406142 -39.6 
L 319.144171 -39.6 
L 320.8822 -39.6 
L 322.620229 -39.6 
L 324.358258 -39.6 
L 326.096287 -39.6 
L 327.834316 -39.6 
L 329.572345 -39.6 
L 331.310374 -39.6 
L 333.048403 -39.6 
L 334.786432 -39.6 
L 336.524461 -39.6 
L 338.26249 -39.6 
L 340.000519 -39.6 
L 341.738548 -39.6 
L 343.476577 -39.6 
L 345.214606 -39.6 
L 346.952635 -39.6 
L 348.690664 -39.6 
L 350.428693 -39.6 
L 352.166722 -39.6 
L 353.904751 -39.6 
L 355.64278 -39.6 
L 357.380809 -39.6 
L 359.118838 -39.6 
L 360.856867 -39.6 
L 362.594896 -39.6 
L 364.332925 -39.6 
L 366.070954 -39.6 
L 367.808983 -39.6 
L 369.547012 -39.6 
L 371.285041 -39.6 
L 373.02307 -39.6 
L 374.761099 -39.6 
L 376.499128 -39.6 
L 378.237157 -39.6 
L 379.975186 -39.6 
L 381.713215 -39.6 
L 383.451244 -39.6 
L 385.189273 -39.6 
L 386.927302 -39.6 
L 388.665331 -39.6 
L 390.40336 -39.6 
L 392.141389 -39.6 
L 393.879418 -39.6 
L 395.617447 -39.6 
L 397.355476 -39.6 
L 399.093505 -39.6 
L 400.831534 -39.6 
L 402.569563 -39.6 
L 404.307592 -39.6 
L 406.045621 -39.6 
L 407.78365 -39.6 
L 409.521679 -39.6 
L 411.259708 -39.6 
L 412.997737 -39.6 
L 414.735766 -39.6 
L 416.473795 -39.6 
L 418.211824 -39.6 
L 419.949853 -39.6 
L 421.687882 -39.6 
L 423.425911 -39.6 
L 425.16394 -39.6 
L 426.901969 -39.6 
L 428.639998 -39.6 
L 430.378026 -39.6 
L 432.116055 -39.6 
L 433.854084 -39.6 
L 435.592113 -39.6 
L 437.330142 -39.6 
L 439.068171 -39.6 
L 440.8062 -39.6 
L 442.544229 -39.6 
L 444.282258 -39.6 
L 446.020287 -39.6 
L 447.758316 -39.6 
L 449.496345 -39.6 
L 451.234374 -39.6 
L 452.972403 -39.6 
L 454.710432 -39.6 
L 456.448461 -39.6 
L 458.18649 -39.6 
L 459.924519 -39.6 
L 461.662548 -39.6 
L 463.400577 -39.6 
L 465.138606 -39.6 
L 466.876635 -39.6 
L 468.614664 -39.6 
L 470.352693 -39.6 
L 472.090722 -39.6 
L 473.828751 -39.6 
L 475.56678 -39.6 
L 477.304809 -39.6 
L 479.042838 -39.6 
L 480.780867 -39.6 
L 482.518896 -39.6 
L 484.256925 -39.6 
L 485.994954 -39.6 
L 487.732983 -39.6 
L 489.471012 -39.6 
L 491.209041 -39.6 
L 492.94707 -39.6 
L 494.685099 -39.6 
L 496.423128 -39.6 
L 498.161157 -39.6 
L 498.161157 -39.75216 
L 498.161157 -39.75216 
L 496.423128 -39.827754 
L 494.685099 -39.935884 
L 492.94707 -40.088098 
L 491.209041 -40.298966 
L 489.471012 -40.586458 
L 487.732983 -40.972214 
L 485.994954 -41.481645 
L 484.256925 -42.143807 
L 482.518896 -42.990982 
L 480.780867 -44.057922 
L 479.042838 -45.380746 
L 477.304809 -46.995479 
L 475.56678 -48.936311 
L 473.828751 -51.233644 
L 472.090722 -53.912069 
L 470.352693 -56.988432 
L 468.614664 -60.470151 
L 466.876635 -64.353956 
L 465.138606 -68.625185 
L 463.400577 -73.257729 
L 461.662548 -78.21465 
L 459.924519 -83.449443 
L 458.18649 -88.907833 
L 456.448461 -94.529958 
L 454.710432 -100.252756 
L 452.972403 -106.012369 
L 451.234374 -111.746385 
L 449.496345 -117.395789 
L 447.758316 -122.906543 
L 446.020287 -128.230743 
L 444.282258 -133.327396 
L 442.544229 -138.162834 
L 440.8062 -142.710847 
L 439.068171 -146.952583 
L 437.330142 -150.876286 
L 435.592113 -154.476888 
L 433.854084 -157.75548 
L 432.116055 -160.718683 
L 430.378026 -163.377918 
L 428.639998 -165.748607 
L 426.901969 -167.84933 
L 425.16394 -169.701004 
L 423.425911 -171.326141 
L 421.687882 -172.748237 
L 419.949853 -173.991352 
L 418.211824 -175.079886 
L 416.473795 -176.038544 
L 414.735766 -176.892433 
L 412.997737 -177.667211 
L 411.259708 -178.38919 
L 409.521679 -179.085289 
L 407.78365 -179.782775 
L 406.045621 -180.508743 
L 404.307592 -181.289352 
L 402.569563 -182.148874 
L 400.831534 -183.108673 
L 399.093505 -184.186221 
L 397.355476 -185.394302 
L 395.617447 -186.740488 
L 393.879418 -188.226966 
L 392.141389 -189.850706 
L 390.40336 -191.60391 
L 388.665331 -193.47464 
L 386.927302 -195.447487 
L 385.189273 -197.504137 
L 383.451244 -199.623734 
L 381.713215 -201.782987 
L 379.975186 -203.956039 
L 378.237157 -206.114174 
L 376.499128 -208.225523 
L 374.761099 -210.254909 
L 373.02307 -212.164016 
L 371.285041 -213.911976 
L 369.547012 -215.456443 
L 367.808983 -216.755091 
L 366.070954 -217.767413 
L 364.332925 -218.456631 
L 362.594896 -218.791459 
L 360.856867 -218.747498 
L 359.118838 -218.308048 
L 357.380809 -217.464239 
L 355.64278 -216.21444 
L 353.904751 -214.563049 
L 352.166722 -212.518828 
L 350.428693 -210.09305 
L 348.690664 -207.297716 
L 346.952635 -204.144119 
L 345.214606 -200.641957 
L 343.476577 -196.799126 
L 341.738548 -192.622213 
L 340.000519 -188.117614 
L 338.26249 -183.293103 
L 336.524461 -178.159627 
L 334.786432 -172.733057 
L 333.048403 -167.035645 
L 331.310374 -161.096973 
L 329.572345 -154.954249 
L 327.834316 -148.651884 
L 326.096287 -142.240382 
L 324.358258 -135.774638 
L 322.620229 -129.311828 
L 320.8822 -122.909079 
L 319.144171 -116.621147 
L 317.406142 -110.498309 
L 315.668113 -104.584634 
L 313.930084 -98.916751 
L 312.192055 -93.523174 
L 310.454026 -88.424187 
L 308.715997 -83.632228 
L 306.977968 -79.152688 
L 305.239939 -74.984994 
L 303.50191 -71.123845 
L 301.763881 -67.560482 
L 300.025852 -64.283864 
L 298.287823 -61.281679 
L 296.549794 -58.541125 
L 294.811765 -56.04944 
L 293.073736 -53.794196 
L 291.335707 -51.763379 
L 289.597678 -49.945311 
L 287.859649 -48.328479 
L 286.12162 -46.901311 
L 284.383592 -45.65198 
L 282.645563 -44.568256 
L 280.907534 -43.637439 
L 279.169505 -42.846396 
L 277.431476 -42.181673 
L 275.693447 -41.629686 
L 273.955418 -41.176963 
L 272.217389 -40.810402 
L 270.47936 -40.517519 
L 268.741331 -40.286678 
L 267.003302 -40.107258 
L 265.265273 -39.969778 
L 263.527244 -39.865949 
L 261.789215 -39.788681 
L 260.051186 -39.732034 
L 258.313157 -39.691136 
L 256.575128 -39.662074 
L 254.837099 -39.641772 
L 253.09907 -39.627869 
L 251.361041 -39.618601 
L 249.623012 -39.612692 
L 247.884983 -39.609271 
L 246.146954 -39.607799 
L 244.408925 -39.608024 
L 242.670896 -39.60995 
L 240.932867 -39.613829 
L 239.194838 -39.620173 
L 237.456809 -39.629771 
L 235.71878 -39.643724 
L 233.980751 -39.663479 
L 232.242722 -39.690861 
L 230.504693 -39.728092 
L 228.766664 -39.777779 
L 227.028635 -39.842882 
L 225.290606 -39.926617 
L 223.552577 -40.032315 
L 221.814548 -40.163217 
L 220.076519 -40.322212 
L 218.33849 -40.51152 
L 216.600461 -40.732348 
L 214.862432 -40.984541 
L 213.124403 -41.266264 
L 211.386374 -41.573759 
L 209.648345 -41.901212 
L 207.910316 -42.240775 
L 206.172287 -42.58276 
L 204.434258 -42.916022 
L 202.696229 -43.228512 
L 200.9582 -43.507977 
L 199.220171 -43.742739 
L 197.482142 -43.922503 
L 195.744113 -44.039104 
L 194.006084 -44.087117 
L 192.268055 -44.064283 
L 190.530026 -43.971678 
L 188.791997 -43.813634 
L 187.053968 -43.597401 
L 185.315939 -43.332594 
L 183.57791 -43.030488 
L 181.839881 -42.703225 
L 180.101852 -42.363012 
L 178.363823 -42.021389 
L 176.625794 -41.688615 
L 174.887765 -41.373228 
L 173.149736 -41.081777 
L 171.411707 -40.818746 
L 169.673678 -40.586633 
L 167.935649 -40.386159 
L 166.19762 -40.216563 
L 164.459591 -40.075945 
L 162.721562 -39.961616 
L 160.983533 -39.870428 
L 159.245504 -39.799052 
L 157.507475 -39.74421 
L 155.769446 -39.702834 
L 154.031417 -39.672175 
L 152.293388 -39.64986 
z
" style="stroke: #1f77b4"/>
    </defs>
    <g clip-path="url(#pca1bd21775)">
     <use xlink:href="#m5fed717463" x="0" y="360" style="fill: #1f77b4; fill-opacity: 0.25; stroke: #1f77b4"/>
    </g>
   </g>
   <g id="matplotlib.axis_1">
    <g id="xtick_1">
     <g id="line2d_1">
      <defs>
       <path id="m3522d41a80" d="M 0 0 
L 0 3.5 
" style="stroke: #000000; stroke-width: 0.8"/>
      </defs>
      <g>
       <use xlink:href="#m3522d41a80" x="193.696165" y="320.4" style="stroke: #000000; stroke-width: 0.8"/>
      </g>
     </g>
     <g id="text_1">
      <!-- 0 -->
      <g transform="translate(190.514915 334.998438) scale(0.1 -0.1)">
       <defs>
        <path id="DejaVuSans-30" d="M 2034 4250 
Q 1547 4250 1301 3770 
Q 1056 3291 1056 2328 
Q 1056 1369 1301 889 
Q 1547 409 2034 409 
Q 2525 409 2770 889 
Q 3016 1369 3016 2328 
Q 3016 3291 2770 3770 
Q 2525 4250 2034 4250 
z
M 2034 4750 
Q 2819 4750 3233 4129 
Q 3647 3509 3647 2328 
Q 3647 1150 3233 529 
Q 2819 -91 2034 -91 
Q 1250 -91 836 529 
Q 422 1150 422 2328 
Q 422 3509 836 4129 
Q 1250 4750 2034 4750 
z
" transform="scale(0.015625)"/>
       </defs>
       <use xlink:href="#DejaVuSans-30"/>
      </g>
     </g>
    </g>
    <g id="xtick_2">
     <g id="line2d_2">
      <g>
       <use xlink:href="#m3522d41a80" x="259.792199" y="320.4" style="stroke: #000000; stroke-width: 0.8"/>
      </g>
     </g>
     <g id="text_2">
      <!-- 50 -->
      <g transform="translate(253.429699 334.998438) scale(0.1 -0.1)">
       <defs>
        <path id="DejaVuSans-35" d="M 691 4666 
L 3169 4666 
L 3169 4134 
L 1269 4134 
L 1269 2991 
Q 1406 3038 1543 3061 
Q 1681 3084 1819 3084 
Q 2600 3084 3056 2656 
Q 3513 2228 3513 1497 
Q 3513 744 3044 326 
Q 2575 -91 1722 -91 
Q 1428 -91 1123 -41 
Q 819 9 494 109 
L 494 744 
Q 775 591 1075 516 
Q 1375 441 1709 441 
Q 2250 441 2565 725 
Q 2881 1009 2881 1497 
Q 2881 1984 2565 2268 
Q 2250 2553 1709 2553 
Q 1456 2553 1204 2497 
Q 953 2441 691 2322 
L 691 4666 
z
" transform="scale(0.015625)"/>
       </defs>
       <use xlink:href="#DejaVuSans-35"/>
       <use xlink:href="#DejaVuSans-30" x="63.623047"/>
      </g>
     </g>
    </g>
    <g id="xtick_3">
     <g id="line2d_3">
      <g>
       <use xlink:href="#m3522d41a80" x="325.888233" y="320.4" style="stroke: #000000; stroke-width: 0.8"/>
      </g>
     </g>
     <g id="text_3">
      <!-- 100 -->
      <g transform="translate(316.344483 334.998438) scale(0.1 -0.1)">
       <defs>
        <path id="DejaVuSans-31" d="M 794 531 
L 1825 531 
L 1825 4091 
L 703 3866 
L 703 4441 
L 1819 4666 
L 2450 4666 
L 2450 531 
L 3481 531 
L 3481 0 
L 794 0 
L 794 531 
z
" transform="scale(0.015625)"/>
       </defs>
       <use xlink:href="#DejaVuSans-31"/>
       <use xlink:href="#DejaVuSans-30" x="63.623047"/>
       <use xlink:href="#DejaVuSans-30" x="127.246094"/>
      </g>
     </g>
    </g>
    <g id="xtick_4">
     <g id="line2d_4">
      <g>
       <use xlink:href="#m3522d41a80" x="391.984267" y="320.4" style="stroke: #000000; stroke-width: 0.8"/>
      </g>
     </g>
     <g id="text_4">
      <!-- 150 -->
      <g transform="translate(382.440517 334.998438) scale(0.1 -0.1)">
       <use xlink:href="#DejaVuSans-31"/>
       <use xlink:href="#DejaVuSans-35" x="63.623047"/>
       <use xlink:href="#DejaVuSans-30" x="127.246094"/>
      </g>
     </g>
    </g>
    <g id="xtick_5">
     <g id="line2d_5">
      <g>
       <use xlink:href="#m3522d41a80" x="458.080301" y="320.4" style="stroke: #000000; stroke-width: 0.8"/>
      </g>
     </g>
     <g id="text_5">
      <!-- 200 -->
      <g transform="translate(448.536551 334.998438) scale(0.1 -0.1)">
       <defs>
        <path id="DejaVuSans-32" d="M 1228 531 
L 3431 531 
L 3431 0 
L 469 0 
L 469 531 
Q 828 903 1448 1529 
Q 2069 2156 2228 2338 
Q 2531 2678 2651 2914 
Q 2772 3150 2772 3378 
Q 2772 3750 2511 3984 
Q 2250 4219 1831 4219 
Q 1534 4219 1204 4116 
Q 875 4013 500 3803 
L 500 4441 
Q 881 4594 1212 4672 
Q 1544 4750 1819 4750 
Q 2544 4750 2975 4387 
Q 3406 4025 3406 3419 
Q 3406 3131 3298 2873 
Q 3191 2616 2906 2266 
Q 2828 2175 2409 1742 
Q 1991 1309 1228 531 
z
" transform="scale(0.015625)"/>
       </defs>
       <use xlink:href="#DejaVuSans-32"/>
       <use xlink:href="#DejaVuSans-30" x="63.623047"/>
       <use xlink:href="#DejaVuSans-30" x="127.246094"/>
      </g>
     </g>
    </g>
    <g id="text_6">
     <!-- Glucose -->
     <g transform="translate(305.305398 348.676562) scale(0.1 -0.1)">
      <defs>
       <path id="DejaVuSans-47" d="M 3809 666 
L 3809 1919 
L 2778 1919 
L 2778 2438 
L 4434 2438 
L 4434 434 
Q 4069 175 3628 42 
Q 3188 -91 2688 -91 
Q 1594 -91 976 548 
Q 359 1188 359 2328 
Q 359 3472 976 4111 
Q 1594 4750 2688 4750 
Q 3144 4750 3555 4637 
Q 3966 4525 4313 4306 
L 4313 3634 
Q 3963 3931 3569 4081 
Q 3175 4231 2741 4231 
Q 1884 4231 1454 3753 
Q 1025 3275 1025 2328 
Q 1025 1384 1454 906 
Q 1884 428 2741 428 
Q 3075 428 3337 486 
Q 3600 544 3809 666 
z
" transform="scale(0.015625)"/>
       <path id="DejaVuSans-6c" d="M 603 4863 
L 1178 4863 
L 1178 0 
L 603 0 
L 603 4863 
z
" transform="scale(0.015625)"/>
       <path id="DejaVuSans-75" d="M 544 1381 
L 544 3500 
L 1119 3500 
L 1119 1403 
Q 1119 906 1312 657 
Q 1506 409 1894 409 
Q 2359 409 2629 706 
Q 2900 1003 2900 1516 
L 2900 3500 
L 3475 3500 
L 3475 0 
L 2900 0 
L 2900 538 
Q 2691 219 2414 64 
Q 2138 -91 1772 -91 
Q 1169 -91 856 284 
Q 544 659 544 1381 
z
M 1991 3584 
L 1991 3584 
z
" transform="scale(0.015625)"/>
       <path id="DejaVuSans-63" d="M 3122 3366 
L 3122 2828 
Q 2878 2963 2633 3030 
Q 2388 3097 2138 3097 
Q 1578 3097 1268 2742 
Q 959 2388 959 1747 
Q 959 1106 1268 751 
Q 1578 397 2138 397 
Q 2388 397 2633 464 
Q 2878 531 3122 666 
L 3122 134 
Q 2881 22 2623 -34 
Q 2366 -91 2075 -91 
Q 1284 -91 818 406 
Q 353 903 353 1747 
Q 353 2603 823 3093 
Q 1294 3584 2113 3584 
Q 2378 3584 2631 3529 
Q 2884 3475 3122 3366 
z
" transform="scale(0.015625)"/>
       <path id="DejaVuSans-6f" d="M 1959 3097 
Q 1497 3097 1228 2736 
Q 959 2375 959 1747 
Q 959 1119 1226 758 
Q 1494 397 1959 397 
Q 2419 397 2687 759 
Q 2956 1122 2956 1747 
Q 2956 2369 2687 2733 
Q 2419 3097 1959 3097 
z
M 1959 3584 
Q 2709 3584 3137 3096 
Q 3566 2609 3566 1747 
Q 3566 888 3137 398 
Q 2709 -91 1959 -91 
Q 1206 -91 779 398 
Q 353 888 353 1747 
Q 353 2609 779 3096 
Q 1206 3584 1959 3584 
z
" transform="scale(0.015625)"/>
       <path id="DejaVuSans-73" d="M 2834 3397 
L 2834 2853 
Q 2591 2978 2328 3040 
Q 2066 3103 1784 3103 
Q 1356 3103 1142 2972 
Q 928 2841 928 2578 
Q 928 2378 1081 2264 
Q 1234 2150 1697 2047 
L 1894 2003 
Q 2506 1872 2764 1633 
Q 3022 1394 3022 966 
Q 3022 478 2636 193 
Q 2250 -91 1575 -91 
Q 1294 -91 989 -36 
Q 684 19 347 128 
L 347 722 
Q 666 556 975 473 
Q 1284 391 1588 391 
Q 1994 391 2212 530 
Q 2431 669 2431 922 
Q 2431 1156 2273 1281 
Q 2116 1406 1581 1522 
L 1381 1569 
Q 847 1681 609 1914 
Q 372 2147 372 2553 
Q 372 3047 722 3315 
Q 1072 3584 1716 3584 
Q 2034 3584 2315 3537 
Q 2597 3491 2834 3397 
z
" transform="scale(0.015625)"/>
       <path id="DejaVuSans-65" d="M 3597 1894 
L 3597 1613 
L 953 1613 
Q 991 1019 1311 708 
Q 1631 397 2203 397 
Q 2534 397 2845 478 
Q 3156 559 3463 722 
L 3463 178 
Q 3153 47 2828 -22 
Q 2503 -91 2169 -91 
Q 1331 -91 842 396 
Q 353 884 353 1716 
Q 353 2575 817 3079 
Q 1281 3584 2069 3584 
Q 2775 3584 3186 3129 
Q 3597 2675 3597 1894 
z
M 3022 2063 
Q 3016 2534 2758 2815 
Q 2500 3097 2075 3097 
Q 1594 3097 1305 2825 
Q 1016 2553 972 2059 
L 3022 2063 
z
" transform="scale(0.015625)"/>
      </defs>
      <use xlink:href="#DejaVuSans-47"/>
      <use xlink:href="#DejaVuSans-6c" x="77.490234"/>
      <use xlink:href="#DejaVuSans-75" x="105.273438"/>
      <use xlink:href="#DejaVuSans-63" x="168.652344"/>
      <use xlink:href="#DejaVuSans-6f" x="223.632812"/>
      <use xlink:href="#DejaVuSans-73" x="284.814453"/>
      <use xlink:href="#DejaVuSans-65" x="336.914062"/>
     </g>
    </g>
   </g>
   <g id="matplotlib.axis_2">
    <g id="ytick_1">
     <g id="line2d_6">
      <defs>
       <path id="m4ee6ddc2af" d="M 0 0 
L -3.5 0 
" style="stroke: #000000; stroke-width: 0.8"/>
      </defs>
      <g>
       <use xlink:href="#m4ee6ddc2af" x="135" y="320.4" style="stroke: #000000; stroke-width: 0.8"/>
      </g>
     </g>
     <g id="text_7">
      <!-- 0.000 -->
      <g transform="translate(99.371875 324.199219) scale(0.1 -0.1)">
       <defs>
        <path id="DejaVuSans-2e" d="M 684 794 
L 1344 794 
L 1344 0 
L 684 0 
L 684 794 
z
" transform="scale(0.015625)"/>
       </defs>
       <use xlink:href="#DejaVuSans-30"/>
       <use xlink:href="#DejaVuSans-2e" x="63.623047"/>
       <use xlink:href="#DejaVuSans-30" x="95.410156"/>
       <use xlink:href="#DejaVuSans-30" x="159.033203"/>
       <use xlink:href="#DejaVuSans-30" x="222.65625"/>
      </g>
     </g>
    </g>
    <g id="ytick_2">
     <g id="line2d_7">
      <g>
       <use xlink:href="#m4ee6ddc2af" x="135" y="288.922193" style="stroke: #000000; stroke-width: 0.8"/>
      </g>
     </g>
     <g id="text_8">
      <!-- 0.002 -->
      <g transform="translate(99.371875 292.721412) scale(0.1 -0.1)">
       <use xlink:href="#DejaVuSans-30"/>
       <use xlink:href="#DejaVuSans-2e" x="63.623047"/>
       <use xlink:href="#DejaVuSans-30" x="95.410156"/>
       <use xlink:href="#DejaVuSans-30" x="159.033203"/>
       <use xlink:href="#DejaVuSans-32" x="222.65625"/>
      </g>
     </g>
    </g>
    <g id="ytick_3">
     <g id="line2d_8">
      <g>
       <use xlink:href="#m4ee6ddc2af" x="135" y="257.444386" style="stroke: #000000; stroke-width: 0.8"/>
      </g>
     </g>
     <g id="text_9">
      <!-- 0.004 -->
      <g transform="translate(99.371875 261.243605) scale(0.1 -0.1)">
       <defs>
        <path id="DejaVuSans-34" d="M 2419 4116 
L 825 1625 
L 2419 1625 
L 2419 4116 
z
M 2253 4666 
L 3047 4666 
L 3047 1625 
L 3713 1625 
L 3713 1100 
L 3047 1100 
L 3047 0 
L 2419 0 
L 2419 1100 
L 313 1100 
L 313 1709 
L 2253 4666 
z
" transform="scale(0.015625)"/>
       </defs>
       <use xlink:href="#DejaVuSans-30"/>
       <use xlink:href="#DejaVuSans-2e" x="63.623047"/>
       <use xlink:href="#DejaVuSans-30" x="95.410156"/>
       <use xlink:href="#DejaVuSans-30" x="159.033203"/>
       <use xlink:href="#DejaVuSans-34" x="222.65625"/>
      </g>
     </g>
    </g>
    <g id="ytick_4">
     <g id="line2d_9">
      <g>
       <use xlink:href="#m4ee6ddc2af" x="135" y="225.966579" style="stroke: #000000; stroke-width: 0.8"/>
      </g>
     </g>
     <g id="text_10">
      <!-- 0.006 -->
      <g transform="translate(99.371875 229.765798) scale(0.1 -0.1)">
       <defs>
        <path id="DejaVuSans-36" d="M 2113 2584 
Q 1688 2584 1439 2293 
Q 1191 2003 1191 1497 
Q 1191 994 1439 701 
Q 1688 409 2113 409 
Q 2538 409 2786 701 
Q 3034 994 3034 1497 
Q 3034 2003 2786 2293 
Q 2538 2584 2113 2584 
z
M 3366 4563 
L 3366 3988 
Q 3128 4100 2886 4159 
Q 2644 4219 2406 4219 
Q 1781 4219 1451 3797 
Q 1122 3375 1075 2522 
Q 1259 2794 1537 2939 
Q 1816 3084 2150 3084 
Q 2853 3084 3261 2657 
Q 3669 2231 3669 1497 
Q 3669 778 3244 343 
Q 2819 -91 2113 -91 
Q 1303 -91 875 529 
Q 447 1150 447 2328 
Q 447 3434 972 4092 
Q 1497 4750 2381 4750 
Q 2619 4750 2861 4703 
Q 3103 4656 3366 4563 
z
" transform="scale(0.015625)"/>
       </defs>
       <use xlink:href="#DejaVuSans-30"/>
       <use xlink:href="#DejaVuSans-2e" x="63.623047"/>
       <use xlink:href="#DejaVuSans-30" x="95.410156"/>
       <use xlink:href="#DejaVuSans-30" x="159.033203"/>
       <use xlink:href="#DejaVuSans-36" x="222.65625"/>
      </g>
     </g>
    </g>
    <g id="ytick_5">
     <g id="line2d_10">
      <g>
       <use xlink:href="#m4ee6ddc2af" x="135" y="194.488773" style="stroke: #000000; stroke-width: 0.8"/>
      </g>
     </g>
     <g id="text_11">
      <!-- 0.008 -->
      <g transform="translate(99.371875 198.287991) scale(0.1 -0.1)">
       <defs>
        <path id="DejaVuSans-38" d="M 2034 2216 
Q 1584 2216 1326 1975 
Q 1069 1734 1069 1313 
Q 1069 891 1326 650 
Q 1584 409 2034 409 
Q 2484 409 2743 651 
Q 3003 894 3003 1313 
Q 3003 1734 2745 1975 
Q 2488 2216 2034 2216 
z
M 1403 2484 
Q 997 2584 770 2862 
Q 544 3141 544 3541 
Q 544 4100 942 4425 
Q 1341 4750 2034 4750 
Q 2731 4750 3128 4425 
Q 3525 4100 3525 3541 
Q 3525 3141 3298 2862 
Q 3072 2584 2669 2484 
Q 3125 2378 3379 2068 
Q 3634 1759 3634 1313 
Q 3634 634 3220 271 
Q 2806 -91 2034 -91 
Q 1263 -91 848 271 
Q 434 634 434 1313 
Q 434 1759 690 2068 
Q 947 2378 1403 2484 
z
M 1172 3481 
Q 1172 3119 1398 2916 
Q 1625 2713 2034 2713 
Q 2441 2713 2670 2916 
Q 2900 3119 2900 3481 
Q 2900 3844 2670 4047 
Q 2441 4250 2034 4250 
Q 1625 4250 1398 4047 
Q 1172 3844 1172 3481 
z
" transform="scale(0.015625)"/>
       </defs>
       <use xlink:href="#DejaVuSans-30"/>
       <use xlink:href="#DejaVuSans-2e" x="63.623047"/>
       <use xlink:href="#DejaVuSans-30" x="95.410156"/>
       <use xlink:href="#DejaVuSans-30" x="159.033203"/>
       <use xlink:href="#DejaVuSans-38" x="222.65625"/>
      </g>
     </g>
    </g>
    <g id="ytick_6">
     <g id="line2d_11">
      <g>
       <use xlink:href="#m4ee6ddc2af" x="135" y="163.010966" style="stroke: #000000; stroke-width: 0.8"/>
      </g>
     </g>
     <g id="text_12">
      <!-- 0.010 -->
      <g transform="translate(99.371875 166.810184) scale(0.1 -0.1)">
       <use xlink:href="#DejaVuSans-30"/>
       <use xlink:href="#DejaVuSans-2e" x="63.623047"/>
       <use xlink:href="#DejaVuSans-30" x="95.410156"/>
       <use xlink:href="#DejaVuSans-31" x="159.033203"/>
       <use xlink:href="#DejaVuSans-30" x="222.65625"/>
      </g>
     </g>
    </g>
    <g id="ytick_7">
     <g id="line2d_12">
      <g>
       <use xlink:href="#m4ee6ddc2af" x="135" y="131.533159" style="stroke: #000000; stroke-width: 0.8"/>
      </g>
     </g>
     <g id="text_13">
      <!-- 0.012 -->
      <g transform="translate(99.371875 135.332378) scale(0.1 -0.1)">
       <use xlink:href="#DejaVuSans-30"/>
       <use xlink:href="#DejaVuSans-2e" x="63.623047"/>
       <use xlink:href="#DejaVuSans-30" x="95.410156"/>
       <use xlink:href="#DejaVuSans-31" x="159.033203"/>
       <use xlink:href="#DejaVuSans-32" x="222.65625"/>
      </g>
     </g>
    </g>
    <g id="ytick_8">
     <g id="line2d_13">
      <g>
       <use xlink:href="#m4ee6ddc2af" x="135" y="100.055352" style="stroke: #000000; stroke-width: 0.8"/>
      </g>
     </g>
     <g id="text_14">
      <!-- 0.014 -->
      <g transform="translate(99.371875 103.854571) scale(0.1 -0.1)">
       <use xlink:href="#DejaVuSans-30"/>
       <use xlink:href="#DejaVuSans-2e" x="63.623047"/>
       <use xlink:href="#DejaVuSans-30" x="95.410156"/>
       <use xlink:href="#DejaVuSans-31" x="159.033203"/>
       <use xlink:href="#DejaVuSans-34" x="222.65625"/>
      </g>
     </g>
    </g>
    <g id="ytick_9">
     <g id="line2d_14">
      <g>
       <use xlink:href="#m4ee6ddc2af" x="135" y="68.577545" style="stroke: #000000; stroke-width: 0.8"/>
      </g>
     </g>
     <g id="text_15">
      <!-- 0.016 -->
      <g transform="translate(99.371875 72.376764) scale(0.1 -0.1)">
       <use xlink:href="#DejaVuSans-30"/>
       <use xlink:href="#DejaVuSans-2e" x="63.623047"/>
       <use xlink:href="#DejaVuSans-30" x="95.410156"/>
       <use xlink:href="#DejaVuSans-31" x="159.033203"/>
       <use xlink:href="#DejaVuSans-36" x="222.65625"/>
      </g>
     </g>
    </g>
    <g id="text_16">
     <!-- Probability -->
     <g transform="translate(93.292187 208.228906) rotate(-90) scale(0.1 -0.1)">
      <defs>
       <path id="DejaVuSans-50" d="M 1259 4147 
L 1259 2394 
L 2053 2394 
Q 2494 2394 2734 2622 
Q 2975 2850 2975 3272 
Q 2975 3691 2734 3919 
Q 2494 4147 2053 4147 
L 1259 4147 
z
M 628 4666 
L 2053 4666 
Q 2838 4666 3239 4311 
Q 3641 3956 3641 3272 
Q 3641 2581 3239 2228 
Q 2838 1875 2053 1875 
L 1259 1875 
L 1259 0 
L 628 0 
L 628 4666 
z
" transform="scale(0.015625)"/>
       <path id="DejaVuSans-72" d="M 2631 2963 
Q 2534 3019 2420 3045 
Q 2306 3072 2169 3072 
Q 1681 3072 1420 2755 
Q 1159 2438 1159 1844 
L 1159 0 
L 581 0 
L 581 3500 
L 1159 3500 
L 1159 2956 
Q 1341 3275 1631 3429 
Q 1922 3584 2338 3584 
Q 2397 3584 2469 3576 
Q 2541 3569 2628 3553 
L 2631 2963 
z
" transform="scale(0.015625)"/>
       <path id="DejaVuSans-62" d="M 3116 1747 
Q 3116 2381 2855 2742 
Q 2594 3103 2138 3103 
Q 1681 3103 1420 2742 
Q 1159 2381 1159 1747 
Q 1159 1113 1420 752 
Q 1681 391 2138 391 
Q 2594 391 2855 752 
Q 3116 1113 3116 1747 
z
M 1159 2969 
Q 1341 3281 1617 3432 
Q 1894 3584 2278 3584 
Q 2916 3584 3314 3078 
Q 3713 2572 3713 1747 
Q 3713 922 3314 415 
Q 2916 -91 2278 -91 
Q 1894 -91 1617 61 
Q 1341 213 1159 525 
L 1159 0 
L 581 0 
L 581 4863 
L 1159 4863 
L 1159 2969 
z
" transform="scale(0.015625)"/>
       <path id="DejaVuSans-61" d="M 2194 1759 
Q 1497 1759 1228 1600 
Q 959 1441 959 1056 
Q 959 750 1161 570 
Q 1363 391 1709 391 
Q 2188 391 2477 730 
Q 2766 1069 2766 1631 
L 2766 1759 
L 2194 1759 
z
M 3341 1997 
L 3341 0 
L 2766 0 
L 2766 531 
Q 2569 213 2275 61 
Q 1981 -91 1556 -91 
Q 1019 -91 701 211 
Q 384 513 384 1019 
Q 384 1609 779 1909 
Q 1175 2209 1959 2209 
L 2766 2209 
L 2766 2266 
Q 2766 2663 2505 2880 
Q 2244 3097 1772 3097 
Q 1472 3097 1187 3025 
Q 903 2953 641 2809 
L 641 3341 
Q 956 3463 1253 3523 
Q 1550 3584 1831 3584 
Q 2591 3584 2966 3190 
Q 3341 2797 3341 1997 
z
" transform="scale(0.015625)"/>
       <path id="DejaVuSans-69" d="M 603 3500 
L 1178 3500 
L 1178 0 
L 603 0 
L 603 3500 
z
M 603 4863 
L 1178 4863 
L 1178 4134 
L 603 4134 
L 603 4863 
z
" transform="scale(0.015625)"/>
       <path id="DejaVuSans-74" d="M 1172 4494 
L 1172 3500 
L 2356 3500 
L 2356 3053 
L 1172 3053 
L 1172 1153 
Q 1172 725 1289 603 
Q 1406 481 1766 481 
L 2356 481 
L 2356 0 
L 1766 0 
Q 1100 0 847 248 
Q 594 497 594 1153 
L 594 3053 
L 172 3053 
L 172 3500 
L 594 3500 
L 594 4494 
L 1172 4494 
z
" transform="scale(0.015625)"/>
       <path id="DejaVuSans-79" d="M 2059 -325 
Q 1816 -950 1584 -1140 
Q 1353 -1331 966 -1331 
L 506 -1331 
L 506 -850 
L 844 -850 
Q 1081 -850 1212 -737 
Q 1344 -625 1503 -206 
L 1606 56 
L 191 3500 
L 800 3500 
L 1894 763 
L 2988 3500 
L 3597 3500 
L 2059 -325 
z
" transform="scale(0.015625)"/>
      </defs>
      <use xlink:href="#DejaVuSans-50"/>
      <use xlink:href="#DejaVuSans-72" x="58.552734"/>
      <use xlink:href="#DejaVuSans-6f" x="97.416016"/>
      <use xlink:href="#DejaVuSans-62" x="158.597656"/>
      <use xlink:href="#DejaVuSans-61" x="222.074219"/>
      <use xlink:href="#DejaVuSans-62" x="283.353516"/>
      <use xlink:href="#DejaVuSans-69" x="346.830078"/>
      <use xlink:href="#DejaVuSans-6c" x="374.613281"/>
      <use xlink:href="#DejaVuSans-69" x="402.396484"/>
      <use xlink:href="#DejaVuSans-74" x="430.179688"/>
      <use xlink:href="#DejaVuSans-79" x="469.388672"/>
     </g>
    </g>
   </g>
   <g id="patch_3">
    <path d="M 135 320.4 
L 135 43.2 
" style="fill: none; stroke: #000000; stroke-width: 0.8; stroke-linejoin: miter; stroke-linecap: square"/>
   </g>
   <g id="patch_4">
    <path d="M 515.454545 320.4 
L 515.454545 43.2 
" style="fill: none; stroke: #000000; stroke-width: 0.8; stroke-linejoin: miter; stroke-linecap: square"/>
   </g>
   <g id="patch_5">
    <path d="M 135 320.4 
L 515.454545 320.4 
" style="fill: none; stroke: #000000; stroke-width: 0.8; stroke-linejoin: miter; stroke-linecap: square"/>
   </g>
   <g id="patch_6">
    <path d="M 135 43.2 
L 515.454545 43.2 
" style="fill: none; stroke: #000000; stroke-width: 0.8; stroke-linejoin: miter; stroke-linecap: square"/>
   </g>
   <g id="text_17">
    <!-- Highest discriminative power -->
    <g transform="translate(237.62071 37.2) scale(0.12 -0.12)">
     <defs>
      <path id="DejaVuSans-48" d="M 628 4666 
L 1259 4666 
L 1259 2753 
L 3553 2753 
L 3553 4666 
L 4184 4666 
L 4184 0 
L 3553 0 
L 3553 2222 
L 1259 2222 
L 1259 0 
L 628 0 
L 628 4666 
z
" transform="scale(0.015625)"/>
      <path id="DejaVuSans-67" d="M 2906 1791 
Q 2906 2416 2648 2759 
Q 2391 3103 1925 3103 
Q 1463 3103 1205 2759 
Q 947 2416 947 1791 
Q 947 1169 1205 825 
Q 1463 481 1925 481 
Q 2391 481 2648 825 
Q 2906 1169 2906 1791 
z
M 3481 434 
Q 3481 -459 3084 -895 
Q 2688 -1331 1869 -1331 
Q 1566 -1331 1297 -1286 
Q 1028 -1241 775 -1147 
L 775 -588 
Q 1028 -725 1275 -790 
Q 1522 -856 1778 -856 
Q 2344 -856 2625 -561 
Q 2906 -266 2906 331 
L 2906 616 
Q 2728 306 2450 153 
Q 2172 0 1784 0 
Q 1141 0 747 490 
Q 353 981 353 1791 
Q 353 2603 747 3093 
Q 1141 3584 1784 3584 
Q 2172 3584 2450 3431 
Q 2728 3278 2906 2969 
L 2906 3500 
L 3481 3500 
L 3481 434 
z
" transform="scale(0.015625)"/>
      <path id="DejaVuSans-68" d="M 3513 2113 
L 3513 0 
L 2938 0 
L 2938 2094 
Q 2938 2591 2744 2837 
Q 2550 3084 2163 3084 
Q 1697 3084 1428 2787 
Q 1159 2491 1159 1978 
L 1159 0 
L 581 0 
L 581 4863 
L 1159 4863 
L 1159 2956 
Q 1366 3272 1645 3428 
Q 1925 3584 2291 3584 
Q 2894 3584 3203 3211 
Q 3513 2838 3513 2113 
z
" transform="scale(0.015625)"/>
      <path id="DejaVuSans-20" transform="scale(0.015625)"/>
      <path id="DejaVuSans-64" d="M 2906 2969 
L 2906 4863 
L 3481 4863 
L 3481 0 
L 2906 0 
L 2906 525 
Q 2725 213 2448 61 
Q 2172 -91 1784 -91 
Q 1150 -91 751 415 
Q 353 922 353 1747 
Q 353 2572 751 3078 
Q 1150 3584 1784 3584 
Q 2172 3584 2448 3432 
Q 2725 3281 2906 2969 
z
M 947 1747 
Q 947 1113 1208 752 
Q 1469 391 1925 391 
Q 2381 391 2643 752 
Q 2906 1113 2906 1747 
Q 2906 2381 2643 2742 
Q 2381 3103 1925 3103 
Q 1469 3103 1208 2742 
Q 947 2381 947 1747 
z
" transform="scale(0.015625)"/>
      <path id="DejaVuSans-6d" d="M 3328 2828 
Q 3544 3216 3844 3400 
Q 4144 3584 4550 3584 
Q 5097 3584 5394 3201 
Q 5691 2819 5691 2113 
L 5691 0 
L 5113 0 
L 5113 2094 
Q 5113 2597 4934 2840 
Q 4756 3084 4391 3084 
Q 3944 3084 3684 2787 
Q 3425 2491 3425 1978 
L 3425 0 
L 2847 0 
L 2847 2094 
Q 2847 2600 2669 2842 
Q 2491 3084 2119 3084 
Q 1678 3084 1418 2786 
Q 1159 2488 1159 1978 
L 1159 0 
L 581 0 
L 581 3500 
L 1159 3500 
L 1159 2956 
Q 1356 3278 1631 3431 
Q 1906 3584 2284 3584 
Q 2666 3584 2933 3390 
Q 3200 3197 3328 2828 
z
" transform="scale(0.015625)"/>
      <path id="DejaVuSans-6e" d="M 3513 2113 
L 3513 0 
L 2938 0 
L 2938 2094 
Q 2938 2591 2744 2837 
Q 2550 3084 2163 3084 
Q 1697 3084 1428 2787 
Q 1159 2491 1159 1978 
L 1159 0 
L 581 0 
L 581 3500 
L 1159 3500 
L 1159 2956 
Q 1366 3272 1645 3428 
Q 1925 3584 2291 3584 
Q 2894 3584 3203 3211 
Q 3513 2838 3513 2113 
z
" transform="scale(0.015625)"/>
      <path id="DejaVuSans-76" d="M 191 3500 
L 800 3500 
L 1894 563 
L 2988 3500 
L 3597 3500 
L 2284 0 
L 1503 0 
L 191 3500 
z
" transform="scale(0.015625)"/>
      <path id="DejaVuSans-70" d="M 1159 525 
L 1159 -1331 
L 581 -1331 
L 581 3500 
L 1159 3500 
L 1159 2969 
Q 1341 3281 1617 3432 
Q 1894 3584 2278 3584 
Q 2916 3584 3314 3078 
Q 3713 2572 3713 1747 
Q 3713 922 3314 415 
Q 2916 -91 2278 -91 
Q 1894 -91 1617 61 
Q 1341 213 1159 525 
z
M 3116 1747 
Q 3116 2381 2855 2742 
Q 2594 3103 2138 3103 
Q 1681 3103 1420 2742 
Q 1159 2381 1159 1747 
Q 1159 1113 1420 752 
Q 1681 391 2138 391 
Q 2594 391 2855 752 
Q 3116 1113 3116 1747 
z
" transform="scale(0.015625)"/>
      <path id="DejaVuSans-77" d="M 269 3500 
L 844 3500 
L 1563 769 
L 2278 3500 
L 2956 3500 
L 3675 769 
L 4391 3500 
L 4966 3500 
L 4050 0 
L 3372 0 
L 2619 2869 
L 1863 0 
L 1184 0 
L 269 3500 
z
" transform="scale(0.015625)"/>
     </defs>
     <use xlink:href="#DejaVuSans-48"/>
     <use xlink:href="#DejaVuSans-69" x="75.195312"/>
     <use xlink:href="#DejaVuSans-67" x="102.978516"/>
     <use xlink:href="#DejaVuSans-68" x="166.455078"/>
     <use xlink:href="#DejaVuSans-65" x="229.833984"/>
     <use xlink:href="#DejaVuSans-73" x="291.357422"/>
     <use xlink:href="#DejaVuSans-74" x="343.457031"/>
     <use xlink:href="#DejaVuSans-20" x="382.666016"/>
     <use xlink:href="#DejaVuSans-64" x="414.453125"/>
     <use xlink:href="#DejaVuSans-69" x="477.929688"/>
     <use xlink:href="#DejaVuSans-73" x="505.712891"/>
     <use xlink:href="#DejaVuSans-63" x="557.8125"/>
     <use xlink:href="#DejaVuSans-72" x="612.792969"/>
     <use xlink:href="#DejaVuSans-69" x="653.90625"/>
     <use xlink:href="#DejaVuSans-6d" x="681.689453"/>
     <use xlink:href="#DejaVuSans-69" x="779.101562"/>
     <use xlink:href="#DejaVuSans-6e" x="806.884766"/>
     <use xlink:href="#DejaVuSans-61" x="870.263672"/>
     <use xlink:href="#DejaVuSans-74" x="931.542969"/>
     <use xlink:href="#DejaVuSans-69" x="970.751953"/>
     <use xlink:href="#DejaVuSans-76" x="998.535156"/>
     <use xlink:href="#DejaVuSans-65" x="1057.714844"/>
     <use xlink:href="#DejaVuSans-20" x="1119.238281"/>
     <use xlink:href="#DejaVuSans-70" x="1151.025391"/>
     <use xlink:href="#DejaVuSans-6f" x="1214.501953"/>
     <use xlink:href="#DejaVuSans-77" x="1275.683594"/>
     <use xlink:href="#DejaVuSans-65" x="1357.470703"/>
     <use xlink:href="#DejaVuSans-72" x="1418.994141"/>
    </g>
   </g>
   <g id="legend_1">
    <g id="patch_7">
     <path d="M 432.06392 80.55625 
L 508.454545 80.55625 
Q 510.454545 80.55625 510.454545 78.55625 
L 510.454545 50.2 
Q 510.454545 48.2 508.454545 48.2 
L 432.06392 48.2 
Q 430.06392 48.2 430.06392 50.2 
L 430.06392 78.55625 
Q 430.06392 80.55625 432.06392 80.55625 
z
" style="fill: #ffffff; opacity: 0.8; stroke: #cccccc; stroke-linejoin: miter"/>
    </g>
    <g id="patch_8">
     <path d="M 434.06392 59.798437 
L 454.06392 59.798437 
L 454.06392 52.798437 
L 434.06392 52.798437 
z
" style="fill: #ff7f0e; fill-opacity: 0.25; stroke: #ff7f0e; stroke-linejoin: miter"/>
    </g>
    <g id="text_18">
     <!-- Normal -->
     <g transform="translate(462.06392 59.798437) scale(0.1 -0.1)">
      <defs>
       <path id="DejaVuSans-4e" d="M 628 4666 
L 1478 4666 
L 3547 763 
L 3547 4666 
L 4159 4666 
L 4159 0 
L 3309 0 
L 1241 3903 
L 1241 0 
L 628 0 
L 628 4666 
z
" transform="scale(0.015625)"/>
      </defs>
      <use xlink:href="#DejaVuSans-4e"/>
      <use xlink:href="#DejaVuSans-6f" x="74.804688"/>
      <use xlink:href="#DejaVuSans-72" x="135.986328"/>
      <use xlink:href="#DejaVuSans-6d" x="175.349609"/>
      <use xlink:href="#DejaVuSans-61" x="272.761719"/>
      <use xlink:href="#DejaVuSans-6c" x="334.041016"/>
     </g>
    </g>
    <g id="patch_9">
     <path d="M 434.06392 74.476562 
L 454.06392 74.476562 
L 454.06392 67.476562 
L 434.06392 67.476562 
z
" style="fill: #1f77b4; fill-opacity: 0.25; stroke: #1f77b4; stroke-linejoin: miter"/>
    </g>
    <g id="text_19">
     <!-- Diabetes -->
     <g transform="translate(462.06392 74.476562) scale(0.1 -0.1)">
      <defs>
       <path id="DejaVuSans-44" d="M 1259 4147 
L 1259 519 
L 2022 519 
Q 2988 519 3436 956 
Q 3884 1394 3884 2338 
Q 3884 3275 3436 3711 
Q 2988 4147 2022 4147 
L 1259 4147 
z
M 628 4666 
L 1925 4666 
Q 3281 4666 3915 4102 
Q 4550 3538 4550 2338 
Q 4550 1131 3912 565 
Q 3275 0 1925 0 
L 628 0 
L 628 4666 
z
" transform="scale(0.015625)"/>
      </defs>
      <use xlink:href="#DejaVuSans-44"/>
      <use xlink:href="#DejaVuSans-69" x="77.001953"/>
      <use xlink:href="#DejaVuSans-61" x="104.785156"/>
      <use xlink:href="#DejaVuSans-62" x="166.064453"/>
      <use xlink:href="#DejaVuSans-65" x="229.541016"/>
      <use xlink:href="#DejaVuSans-74" x="291.064453"/>
      <use xlink:href="#DejaVuSans-65" x="330.273438"/>
      <use xlink:href="#DejaVuSans-73" x="391.796875"/>
     </g>
    </g>
   </g>
  </g>
  <g id="axes_2">
   <g id="patch_10">
    <path d="M 591.545455 320.4 
L 972 320.4 
L 972 43.2 
L 591.545455 43.2 
z
" style="fill: #ffffff"/>
   </g>
   <g id="PolyCollection_3">
    <defs>
     <path id="m7dedb91808" d="M 620.692193 -39.886756 
L 620.692193 -39.6 
L 622.370657 -39.6 
L 624.049122 -39.6 
L 625.727586 -39.6 
L 627.40605 -39.6 
L 629.084515 -39.6 
L 630.762979 -39.6 
L 632.441444 -39.6 
L 634.119908 -39.6 
L 635.798373 -39.6 
L 637.476837 -39.6 
L 639.155301 -39.6 
L 640.833766 -39.6 
L 642.51223 -39.6 
L 644.190695 -39.6 
L 645.869159 -39.6 
L 647.547623 -39.6 
L 649.226088 -39.6 
L 650.904552 -39.6 
L 652.583017 -39.6 
L 654.261481 -39.6 
L 655.939946 -39.6 
L 657.61841 -39.6 
L 659.296874 -39.6 
L 660.975339 -39.6 
L 662.653803 -39.6 
L 664.332268 -39.6 
L 666.010732 -39.6 
L 667.689196 -39.6 
L 669.367661 -39.6 
L 671.046125 -39.6 
L 672.72459 -39.6 
L 674.403054 -39.6 
L 676.081519 -39.6 
L 677.759983 -39.6 
L 679.438447 -39.6 
L 681.116912 -39.6 
L 682.795376 -39.6 
L 684.473841 -39.6 
L 686.152305 -39.6 
L 687.830769 -39.6 
L 689.509234 -39.6 
L 691.187698 -39.6 
L 692.866163 -39.6 
L 694.544627 -39.6 
L 696.223092 -39.6 
L 697.901556 -39.6 
L 699.58002 -39.6 
L 701.258485 -39.6 
L 702.936949 -39.6 
L 704.615414 -39.6 
L 706.293878 -39.6 
L 707.972342 -39.6 
L 709.650807 -39.6 
L 711.329271 -39.6 
L 713.007736 -39.6 
L 714.6862 -39.6 
L 716.364665 -39.6 
L 718.043129 -39.6 
L 719.721593 -39.6 
L 721.400058 -39.6 
L 723.078522 -39.6 
L 724.756987 -39.6 
L 726.435451 -39.6 
L 728.113915 -39.6 
L 729.79238 -39.6 
L 731.470844 -39.6 
L 733.149309 -39.6 
L 734.827773 -39.6 
L 736.506238 -39.6 
L 738.184702 -39.6 
L 739.863166 -39.6 
L 741.541631 -39.6 
L 743.220095 -39.6 
L 744.89856 -39.6 
L 746.577024 -39.6 
L 748.255488 -39.6 
L 749.933953 -39.6 
L 751.612417 -39.6 
L 753.290882 -39.6 
L 754.969346 -39.6 
L 756.647811 -39.6 
L 758.326275 -39.6 
L 760.004739 -39.6 
L 761.683204 -39.6 
L 763.361668 -39.6 
L 765.040133 -39.6 
L 766.718597 -39.6 
L 768.397061 -39.6 
L 770.075526 -39.6 
L 771.75399 -39.6 
L 773.432455 -39.6 
L 775.110919 -39.6 
L 776.789383 -39.6 
L 778.467848 -39.6 
L 780.146312 -39.6 
L 781.824777 -39.6 
L 783.503241 -39.6 
L 785.181706 -39.6 
L 786.86017 -39.6 
L 788.538634 -39.6 
L 790.217099 -39.6 
L 791.895563 -39.6 
L 793.574028 -39.6 
L 795.252492 -39.6 
L 796.930956 -39.6 
L 798.609421 -39.6 
L 800.287885 -39.6 
L 801.96635 -39.6 
L 803.644814 -39.6 
L 805.323279 -39.6 
L 807.001743 -39.6 
L 808.680207 -39.6 
L 810.358672 -39.6 
L 812.037136 -39.6 
L 813.715601 -39.6 
L 815.394065 -39.6 
L 817.072529 -39.6 
L 818.750994 -39.6 
L 820.429458 -39.6 
L 822.107923 -39.6 
L 823.786387 -39.6 
L 825.464852 -39.6 
L 827.143316 -39.6 
L 828.82178 -39.6 
L 830.500245 -39.6 
L 832.178709 -39.6 
L 833.857174 -39.6 
L 835.535638 -39.6 
L 837.214102 -39.6 
L 838.892567 -39.6 
L 840.571031 -39.6 
L 842.249496 -39.6 
L 843.92796 -39.6 
L 845.606425 -39.6 
L 847.284889 -39.6 
L 848.963353 -39.6 
L 850.641818 -39.6 
L 852.320282 -39.6 
L 853.998747 -39.6 
L 855.677211 -39.6 
L 857.355675 -39.6 
L 859.03414 -39.6 
L 860.712604 -39.6 
L 862.391069 -39.6 
L 864.069533 -39.6 
L 865.747998 -39.6 
L 867.426462 -39.6 
L 869.104926 -39.6 
L 870.783391 -39.6 
L 872.461855 -39.6 
L 874.14032 -39.6 
L 875.818784 -39.6 
L 877.497248 -39.6 
L 879.175713 -39.6 
L 880.854177 -39.6 
L 882.532642 -39.6 
L 884.211106 -39.6 
L 885.889571 -39.6 
L 887.568035 -39.6 
L 889.246499 -39.6 
L 890.924964 -39.6 
L 892.603428 -39.6 
L 894.281893 -39.6 
L 895.960357 -39.6 
L 897.638821 -39.6 
L 899.317286 -39.6 
L 900.99575 -39.6 
L 902.674215 -39.6 
L 904.352679 -39.6 
L 906.031144 -39.6 
L 907.709608 -39.6 
L 909.388072 -39.6 
L 911.066537 -39.6 
L 912.745001 -39.6 
L 914.423466 -39.6 
L 916.10193 -39.6 
L 917.780394 -39.6 
L 919.458859 -39.6 
L 921.137323 -39.6 
L 922.815788 -39.6 
L 924.494252 -39.6 
L 926.172717 -39.6 
L 927.851181 -39.6 
L 929.529645 -39.6 
L 931.20811 -39.6 
L 932.886574 -39.6 
L 934.565039 -39.6 
L 936.243503 -39.6 
L 937.921967 -39.6 
L 939.600432 -39.6 
L 941.278896 -39.6 
L 942.957361 -39.6 
L 944.635825 -39.6 
L 946.314289 -39.6 
L 947.992754 -39.6 
L 949.671218 -39.6 
L 951.349683 -39.6 
L 953.028147 -39.6 
L 954.706612 -39.6 
L 954.706612 -39.615094 
L 954.706612 -39.615094 
L 953.028147 -39.62326 
L 951.349683 -39.63507 
L 949.671218 -39.651736 
L 947.992754 -39.674676 
L 946.314289 -39.705462 
L 944.635825 -39.745733 
L 942.957361 -39.797047 
L 941.278896 -39.860705 
L 939.600432 -39.937535 
L 937.921967 -40.027674 
L 936.243503 -40.130365 
L 934.565039 -40.243835 
L 932.886574 -40.365254 
L 931.20811 -40.490858 
L 929.529645 -40.616202 
L 927.851181 -40.736591 
L 926.172717 -40.847626 
L 924.494252 -40.945827 
L 922.815788 -41.029253 
L 921.137323 -41.098041 
L 919.458859 -41.154764 
L 917.780394 -41.204542 
L 916.10193 -41.254861 
L 914.423466 -41.315091 
L 912.745001 -41.395725 
L 911.066537 -41.507418 
L 909.388072 -41.659918 
L 907.709608 -41.861022 
L 906.031144 -42.115685 
L 904.352679 -42.425405 
L 902.674215 -42.787999 
L 900.99575 -43.197833 
L 899.317286 -43.646529 
L 897.638821 -44.124112 
L 895.960357 -44.620515 
L 894.281893 -45.127304 
L 892.603428 -45.639427 
L 890.924964 -46.156828 
L 889.246499 -46.685714 
L 887.568035 -47.239346 
L 885.889571 -47.838275 
L 884.211106 -48.509989 
L 882.532642 -49.288054 
L 880.854177 -50.210831 
L 879.175713 -51.319955 
L 877.497248 -52.658685 
L 875.818784 -54.270281 
L 874.14032 -56.196461 
L 872.461855 -58.475973 
L 870.783391 -61.143267 
L 869.104926 -64.227231 
L 867.426462 -67.749982 
L 865.747998 -71.725752 
L 864.069533 -76.159963 
L 862.391069 -81.048667 
L 860.712604 -86.37855 
L 859.03414 -92.127689 
L 857.355675 -98.267177 
L 855.677211 -104.763596 
L 853.998747 -111.582157 
L 852.320282 -118.690127 
L 850.641818 -126.060053 
L 848.963353 -133.672207 
L 847.284889 -141.515738 
L 845.606425 -149.588156 
L 843.92796 -157.893035 
L 842.249496 -166.43611 
L 840.571031 -175.22022 
L 838.892567 -184.239806 
L 837.214102 -193.475723 
L 835.535638 -202.891165 
L 833.857174 -212.429277 
L 832.178709 -222.012836 
L 830.500245 -231.546029 
L 828.82178 -240.918126 
L 827.143316 -250.008599 
L 825.464852 -258.693104 
L 823.786387 -266.849749 
L 822.107923 -274.36507 
L 820.429458 -281.139287 
L 818.750994 -287.090483 
L 817.072529 -292.157497 
L 815.394065 -296.301374 
L 813.715601 -299.505327 
L 812.037136 -301.773187 
L 810.358672 -303.126438 
L 808.680207 -303.6 
L 807.001743 -303.237062 
L 805.323279 -302.083411 
L 803.644814 -300.181805 
L 801.96635 -297.567055 
L 800.287885 -294.262449 
L 798.609421 -290.278105 
L 796.930956 -285.611619 
L 795.252492 -280.251099 
L 793.574028 -274.180349 
L 791.895563 -267.385616 
L 790.217099 -259.863025 
L 788.538634 -251.625691 
L 786.86017 -242.709426 
L 785.181706 -233.176174 
L 783.503241 -223.114562 
L 781.824777 -212.637395 
L 780.146312 -201.876344 
L 778.467848 -190.974502 
L 776.789383 -180.077749 
L 775.110919 -169.326021 
L 773.432455 -158.845517 
L 771.75399 -148.742703 
L 770.075526 -139.100609 
L 768.397061 -129.977609 
L 766.718597 -121.408469 
L 765.040133 -113.407209 
L 763.361668 -105.971154 
L 761.683204 -99.085484 
L 760.004739 -92.727687 
L 758.326275 -86.871442 
L 756.647811 -81.48964 
L 754.969346 -76.556433 
L 753.290882 -72.048345 
L 751.612417 -67.944589 
L 749.933953 -64.226795 
L 748.255488 -60.878349 
L 746.577024 -57.883567 
L 744.89856 -55.226842 
L 743.220095 -52.891915 
L 741.541631 -50.861328 
L 739.863166 -49.116108 
L 738.184702 -47.635692 
L 736.506238 -46.398057 
L 734.827773 -45.380012 
L 733.149309 -44.557612 
L 731.470844 -43.90663 
L 729.79238 -43.403031 
L 728.113915 -43.02343 
L 726.435451 -42.745498 
L 724.756987 -42.548295 
L 723.078522 -42.412545 
L 721.400058 -42.320841 
L 719.721593 -42.257787 
L 718.043129 -42.210088 
L 716.364665 -42.166594 
L 714.6862 -42.118311 
L 713.007736 -42.058375 
L 711.329271 -41.982007 
L 709.650807 -41.886434 
L 707.972342 -41.770787 
L 706.293878 -41.635958 
L 704.615414 -41.484417 
L 702.936949 -41.31999 
L 701.258485 -41.147616 
L 699.58002 -40.973097 
L 697.901556 -40.802896 
L 696.223092 -40.644018 
L 694.544627 -40.504034 
L 692.866163 -40.391278 
L 691.187698 -40.315235 
L 689.509234 -40.287102 
L 687.830769 -40.320454 
L 686.152305 -40.431899 
L 684.473841 -40.641559 
L 682.795376 -40.973177 
L 681.116912 -41.453627 
L 679.438447 -42.111632 
L 677.759983 -42.97556 
L 676.081519 -44.070279 
L 674.403054 -45.413213 
L 672.72459 -47.009934 
L 671.046125 -48.849827 
L 669.367661 -50.902473 
L 667.689196 -53.115515 
L 666.010732 -55.414654 
L 664.332268 -57.706268 
L 662.653803 -59.882769 
L 660.975339 -61.830436 
L 659.296874 -63.438989 
L 657.61841 -64.611809 
L 655.939946 -65.275502 
L 654.261481 -65.38748 
L 652.583017 -64.940477 
L 650.904552 -63.96332 
L 649.226088 -62.517852 
L 647.547623 -60.692451 
L 645.869159 -58.593103 
L 644.190695 -56.333257 
L 642.51223 -54.023835 
L 640.833766 -51.764568 
L 639.155301 -49.637564 
L 637.476837 -47.703556 
L 635.798373 -46.000865 
L 634.119908 -44.546721 
L 632.441444 -43.340346 
L 630.762979 -42.367081 
L 629.084515 -41.602847 
L 627.40605 -41.018369 
L 625.727586 -40.582757 
L 624.049122 -40.266222 
L 622.370657 -40.041883 
L 620.692193 -39.886756 
z
" style="stroke: #ff7f0e"/>
    </defs>
    <g clip-path="url(#p4a921069bd)">
     <use xlink:href="#m7dedb91808" x="0" y="360" style="fill: #ff7f0e; fill-opacity: 0.25; stroke: #ff7f0e"/>
    </g>
   </g>
   <g id="PolyCollection_4">
    <defs>
     <path id="m6752b6c35c" d="M 608.838843 -39.934245 
L 608.838843 -39.6 
L 610.548829 -39.6 
L 612.258815 -39.6 
L 613.968802 -39.6 
L 615.678788 -39.6 
L 617.388774 -39.6 
L 619.09876 -39.6 
L 620.808746 -39.6 
L 622.518732 -39.6 
L 624.228719 -39.6 
L 625.938705 -39.6 
L 627.648691 -39.6 
L 629.358677 -39.6 
L 631.068663 -39.6 
L 632.77865 -39.6 
L 634.488636 -39.6 
L 636.198622 -39.6 
L 637.908608 -39.6 
L 639.618594 -39.6 
L 641.32858 -39.6 
L 643.038567 -39.6 
L 644.748553 -39.6 
L 646.458539 -39.6 
L 648.168525 -39.6 
L 649.878511 -39.6 
L 651.588498 -39.6 
L 653.298484 -39.6 
L 655.00847 -39.6 
L 656.718456 -39.6 
L 658.428442 -39.6 
L 660.138429 -39.6 
L 661.848415 -39.6 
L 663.558401 -39.6 
L 665.268387 -39.6 
L 666.978373 -39.6 
L 668.688359 -39.6 
L 670.398346 -39.6 
L 672.108332 -39.6 
L 673.818318 -39.6 
L 675.528304 -39.6 
L 677.23829 -39.6 
L 678.948277 -39.6 
L 680.658263 -39.6 
L 682.368249 -39.6 
L 684.078235 -39.6 
L 685.788221 -39.6 
L 687.498207 -39.6 
L 689.208194 -39.6 
L 690.91818 -39.6 
L 692.628166 -39.6 
L 694.338152 -39.6 
L 696.048138 -39.6 
L 697.758125 -39.6 
L 699.468111 -39.6 
L 701.178097 -39.6 
L 702.888083 -39.6 
L 704.598069 -39.6 
L 706.308055 -39.6 
L 708.018042 -39.6 
L 709.728028 -39.6 
L 711.438014 -39.6 
L 713.148 -39.6 
L 714.857986 -39.6 
L 716.567973 -39.6 
L 718.277959 -39.6 
L 719.987945 -39.6 
L 721.697931 -39.6 
L 723.407917 -39.6 
L 725.117904 -39.6 
L 726.82789 -39.6 
L 728.537876 -39.6 
L 730.247862 -39.6 
L 731.957848 -39.6 
L 733.667834 -39.6 
L 735.377821 -39.6 
L 737.087807 -39.6 
L 738.797793 -39.6 
L 740.507779 -39.6 
L 742.217765 -39.6 
L 743.927752 -39.6 
L 745.637738 -39.6 
L 747.347724 -39.6 
L 749.05771 -39.6 
L 750.767696 -39.6 
L 752.477682 -39.6 
L 754.187669 -39.6 
L 755.897655 -39.6 
L 757.607641 -39.6 
L 759.317627 -39.6 
L 761.027613 -39.6 
L 762.7376 -39.6 
L 764.447586 -39.6 
L 766.157572 -39.6 
L 767.867558 -39.6 
L 769.577544 -39.6 
L 771.28753 -39.6 
L 772.997517 -39.6 
L 774.707503 -39.6 
L 776.417489 -39.6 
L 778.127475 -39.6 
L 779.837461 -39.6 
L 781.547448 -39.6 
L 783.257434 -39.6 
L 784.96742 -39.6 
L 786.677406 -39.6 
L 788.387392 -39.6 
L 790.097379 -39.6 
L 791.807365 -39.6 
L 793.517351 -39.6 
L 795.227337 -39.6 
L 796.937323 -39.6 
L 798.647309 -39.6 
L 800.357296 -39.6 
L 802.067282 -39.6 
L 803.777268 -39.6 
L 805.487254 -39.6 
L 807.19724 -39.6 
L 808.907227 -39.6 
L 810.617213 -39.6 
L 812.327199 -39.6 
L 814.037185 -39.6 
L 815.747171 -39.6 
L 817.457157 -39.6 
L 819.167144 -39.6 
L 820.87713 -39.6 
L 822.587116 -39.6 
L 824.297102 -39.6 
L 826.007088 -39.6 
L 827.717075 -39.6 
L 829.427061 -39.6 
L 831.137047 -39.6 
L 832.847033 -39.6 
L 834.557019 -39.6 
L 836.267006 -39.6 
L 837.976992 -39.6 
L 839.686978 -39.6 
L 841.396964 -39.6 
L 843.10695 -39.6 
L 844.816936 -39.6 
L 846.526923 -39.6 
L 848.236909 -39.6 
L 849.946895 -39.6 
L 851.656881 -39.6 
L 853.366867 -39.6 
L 855.076854 -39.6 
L 856.78684 -39.6 
L 858.496826 -39.6 
L 860.206812 -39.6 
L 861.916798 -39.6 
L 863.626784 -39.6 
L 865.336771 -39.6 
L 867.046757 -39.6 
L 868.756743 -39.6 
L 870.466729 -39.6 
L 872.176715 -39.6 
L 873.886702 -39.6 
L 875.596688 -39.6 
L 877.306674 -39.6 
L 879.01666 -39.6 
L 880.726646 -39.6 
L 882.436632 -39.6 
L 884.146619 -39.6 
L 885.856605 -39.6 
L 887.566591 -39.6 
L 889.276577 -39.6 
L 890.986563 -39.6 
L 892.69655 -39.6 
L 894.406536 -39.6 
L 896.116522 -39.6 
L 897.826508 -39.6 
L 899.536494 -39.6 
L 901.246481 -39.6 
L 902.956467 -39.6 
L 904.666453 -39.6 
L 906.376439 -39.6 
L 908.086425 -39.6 
L 909.796411 -39.6 
L 911.506398 -39.6 
L 913.216384 -39.6 
L 914.92637 -39.6 
L 916.636356 -39.6 
L 918.346342 -39.6 
L 920.056329 -39.6 
L 921.766315 -39.6 
L 923.476301 -39.6 
L 925.186287 -39.6 
L 926.896273 -39.6 
L 928.606259 -39.6 
L 930.316246 -39.6 
L 932.026232 -39.6 
L 933.736218 -39.6 
L 935.446204 -39.6 
L 937.15619 -39.6 
L 938.866177 -39.6 
L 940.576163 -39.6 
L 942.286149 -39.6 
L 943.996135 -39.6 
L 945.706121 -39.6 
L 947.416107 -39.6 
L 949.126094 -39.6 
L 949.126094 -39.629057 
L 949.126094 -39.629057 
L 947.416107 -39.641246 
L 945.706121 -39.657897 
L 943.996135 -39.680376 
L 942.286149 -39.710363 
L 940.576163 -39.749893 
L 938.866177 -39.80139 
L 937.15619 -39.86769 
L 935.446204 -39.952052 
L 933.736218 -40.058148 
L 932.026232 -40.190027 
L 930.316246 -40.352063 
L 928.606259 -40.548862 
L 926.896273 -40.785144 
L 925.186287 -41.065598 
L 923.476301 -41.394708 
L 921.766315 -41.776563 
L 920.056329 -42.21466 
L 918.346342 -42.711708 
L 916.636356 -43.269453 
L 914.92637 -43.888534 
L 913.216384 -44.56839 
L 911.506398 -45.307236 
L 909.796411 -46.10212 
L 908.086425 -46.949064 
L 906.376439 -47.843316 
L 904.666453 -48.779696 
L 902.956467 -49.753041 
L 901.246481 -50.758741 
L 899.536494 -51.793349 
L 897.826508 -52.855239 
L 896.116522 -53.945291 
L 894.406536 -55.067568 
L 892.69655 -56.229942 
L 890.986563 -57.444642 
L 889.276577 -58.728663 
L 887.566591 -60.104015 
L 885.856605 -61.59776 
L 884.146619 -63.241805 
L 882.436632 -65.072428 
L 880.726646 -67.129516 
L 879.01666 -69.455529 
L 877.306674 -72.094184 
L 875.596688 -75.088917 
L 873.886702 -78.481163 
L 872.176715 -82.308534 
L 870.466729 -86.602996 
L 868.756743 -91.389123 
L 867.046757 -96.682564 
L 865.336771 -102.488812 
L 863.626784 -108.802363 
L 861.916798 -115.606354 
L 860.206812 -122.872698 
L 858.496826 -130.562738 
L 856.78684 -138.628375 
L 855.076854 -147.013602 
L 853.366867 -155.656331 
L 851.656881 -164.490392 
L 849.946895 -173.447534 
L 848.236909 -182.459308 
L 846.526923 -191.458676 
L 844.816936 -200.381249 
L 843.10695 -209.166078 
L 841.396964 -217.755978 
L 839.686978 -226.0974 
L 837.976992 -234.13992 
L 836.267006 -241.835439 
L 834.557019 -249.137239 
L 832.847033 -255.999015 
L 831.137047 -262.374037 
L 829.427061 -268.214566 
L 827.717075 -273.471608 
L 826.007088 -278.095087 
L 824.297102 -282.034441 
L 822.587116 -285.239625 
L 820.87713 -287.662475 
L 819.167144 -289.258326 
L 817.457157 -289.9878 
L 815.747171 -289.81862 
L 814.037185 -288.727361 
L 812.327199 -286.701011 
L 810.617213 -283.738262 
L 808.907227 -279.850469 
L 807.19724 -275.062213 
L 805.487254 -269.411477 
L 803.777268 -262.949402 
L 802.067282 -255.739657 
L 800.357296 -247.857428 
L 798.647309 -239.388069 
L 796.937323 -230.425431 
L 795.227337 -221.069923 
L 793.517351 -211.426324 
L 791.807365 -201.601418 
L 790.097379 -191.701494 
L 788.387392 -181.829798 
L 786.677406 -172.084015 
L 784.96742 -162.553903 
L 783.257434 -153.319164 
L 781.547448 -144.447692 
L 779.837461 -135.994281 
L 778.127475 -127.999882 
L 776.417489 -120.491473 
L 774.707503 -113.482523 
L 772.997517 -106.97406 
L 771.28753 -100.956231 
L 769.577544 -95.410256 
L 767.867558 -90.310635 
L 766.157572 -85.627439 
L 764.447586 -81.328522 
L 762.7376 -77.381522 
L 761.027613 -73.755518 
L 759.317627 -70.42227 
L 757.607641 -67.357003 
L 755.897655 -64.538747 
L 754.187669 -61.950265 
L 752.477682 -59.577663 
L 750.767696 -57.409755 
L 749.05771 -55.437309 
L 747.347724 -53.652253 
L 745.637738 -52.046929 
L 743.927752 -50.613469 
L 742.217765 -49.343327 
L 740.507779 -48.226987 
L 738.797793 -47.25385 
L 737.087807 -46.412271 
L 735.377821 -45.689736 
L 733.667834 -45.073124 
L 731.957848 -44.549035 
L 730.247862 -44.104139 
L 728.537876 -43.725525 
L 726.82789 -43.401021 
L 725.117904 -43.119478 
L 723.407917 -42.870995 
L 721.697931 -42.647089 
L 719.987945 -42.440802 
L 718.277959 -42.246755 
L 716.567973 -42.061148 
L 714.857986 -41.881711 
L 713.148 -41.707636 
L 711.438014 -41.539475 
L 709.728028 -41.379044 
L 708.018042 -41.229329 
L 706.308055 -41.094415 
L 704.598069 -40.97945 
L 702.888083 -40.890639 
L 701.178097 -40.835274 
L 699.468111 -40.821791 
L 697.758125 -40.859828 
L 696.048138 -40.960271 
L 694.338152 -41.135244 
L 692.628166 -41.398016 
L 690.91818 -41.762772 
L 689.208194 -42.244237 
L 687.498207 -42.8571 
L 685.788221 -43.615245 
L 684.078235 -44.530791 
L 682.368249 -45.61296 
L 680.658263 -46.866849 
L 678.948277 -48.292164 
L 677.23829 -49.882037 
L 675.528304 -51.62203 
L 673.818318 -53.48946 
L 672.108332 -55.45315 
L 670.398346 -57.473721 
L 668.688359 -59.504456 
L 666.978373 -61.492781 
L 665.268387 -63.382313 
L 663.558401 -65.115367 
L 661.848415 -66.635799 
L 660.138429 -67.89197 
L 658.428442 -68.839631 
L 656.718456 -69.444488 
L 655.00847 -69.684249 
L 653.298484 -69.549982 
L 651.588498 -69.04666 
L 649.878511 -68.192848 
L 648.168525 -67.019566 
L 646.458539 -65.568416 
L 644.748553 -63.889134 
L 643.038567 -62.036766 
L 641.32858 -60.068694 
L 639.618594 -58.041729 
L 637.908608 -56.009477 
L 636.198622 -54.020141 
L 634.488636 -52.114856 
L 632.77865 -50.326643 
L 631.068663 -48.67995 
L 629.358677 -47.190749 
L 627.648691 -45.867112 
L 625.938705 -44.71013 
L 624.228719 -43.715077 
L 622.518732 -42.872696 
L 620.808746 -42.170484 
L 619.09876 -41.593911 
L 617.388774 -41.12749 
L 615.678788 -40.755666 
L 613.968802 -40.463512 
L 612.258815 -40.237214 
L 610.548829 -40.064392 
L 608.838843 -39.934245 
z
" style="stroke: #1f77b4"/>
    </defs>
    <g clip-path="url(#p4a921069bd)">
     <use xlink:href="#m6752b6c35c" x="0" y="360" style="fill: #1f77b4; fill-opacity: 0.25; stroke: #1f77b4"/>
    </g>
   </g>
   <g id="matplotlib.axis_3">
    <g id="xtick_6">
     <g id="line2d_15">
      <g>
       <use xlink:href="#m3522d41a80" x="611.181491" y="320.4" style="stroke: #000000; stroke-width: 0.8"/>
      </g>
     </g>
     <g id="text_20">
      <!-- 20 -->
      <g transform="translate(600.629148 334.998438) scale(0.1 -0.1)">
       <defs>
        <path id="DejaVuSans-2212" d="M 678 2272 
L 4684 2272 
L 4684 1741 
L 678 1741 
L 678 2272 
z
" transform="scale(0.015625)"/>
       </defs>
       <use xlink:href="#DejaVuSans-2212"/>
       <use xlink:href="#DejaVuSans-32" x="83.789062"/>
       <use xlink:href="#DejaVuSans-30" x="147.412109"/>
      </g>
     </g>
    </g>
    <g id="xtick_7">
     <g id="line2d_16">
      <g>
       <use xlink:href="#m3522d41a80" x="654.766161" y="320.4" style="stroke: #000000; stroke-width: 0.8"/>
      </g>
     </g>
     <g id="text_21">
      <!-- 0 -->
      <g transform="translate(651.584911 334.998438) scale(0.1 -0.1)">
       <use xlink:href="#DejaVuSans-30"/>
      </g>
     </g>
    </g>
    <g id="xtick_8">
     <g id="line2d_17">
      <g>
       <use xlink:href="#m3522d41a80" x="698.35083" y="320.4" style="stroke: #000000; stroke-width: 0.8"/>
      </g>
     </g>
     <g id="text_22">
      <!-- 20 -->
      <g transform="translate(691.98833 334.998438) scale(0.1 -0.1)">
       <use xlink:href="#DejaVuSans-32"/>
       <use xlink:href="#DejaVuSans-30" x="63.623047"/>
      </g>
     </g>
    </g>
    <g id="xtick_9">
     <g id="line2d_18">
      <g>
       <use xlink:href="#m3522d41a80" x="741.935499" y="320.4" style="stroke: #000000; stroke-width: 0.8"/>
      </g>
     </g>
     <g id="text_23">
      <!-- 40 -->
      <g transform="translate(735.572999 334.998438) scale(0.1 -0.1)">
       <use xlink:href="#DejaVuSans-34"/>
       <use xlink:href="#DejaVuSans-30" x="63.623047"/>
      </g>
     </g>
    </g>
    <g id="xtick_10">
     <g id="line2d_19">
      <g>
       <use xlink:href="#m3522d41a80" x="785.520169" y="320.4" style="stroke: #000000; stroke-width: 0.8"/>
      </g>
     </g>
     <g id="text_24">
      <!-- 60 -->
      <g transform="translate(779.157669 334.998438) scale(0.1 -0.1)">
       <use xlink:href="#DejaVuSans-36"/>
       <use xlink:href="#DejaVuSans-30" x="63.623047"/>
      </g>
     </g>
    </g>
    <g id="xtick_11">
     <g id="line2d_20">
      <g>
       <use xlink:href="#m3522d41a80" x="829.104838" y="320.4" style="stroke: #000000; stroke-width: 0.8"/>
      </g>
     </g>
     <g id="text_25">
      <!-- 80 -->
      <g transform="translate(822.742338 334.998438) scale(0.1 -0.1)">
       <use xlink:href="#DejaVuSans-38"/>
       <use xlink:href="#DejaVuSans-30" x="63.623047"/>
      </g>
     </g>
    </g>
    <g id="xtick_12">
     <g id="line2d_21">
      <g>
       <use xlink:href="#m3522d41a80" x="872.689507" y="320.4" style="stroke: #000000; stroke-width: 0.8"/>
      </g>
     </g>
     <g id="text_26">
      <!-- 100 -->
      <g transform="translate(863.145757 334.998438) scale(0.1 -0.1)">
       <use xlink:href="#DejaVuSans-31"/>
       <use xlink:href="#DejaVuSans-30" x="63.623047"/>
       <use xlink:href="#DejaVuSans-30" x="127.246094"/>
      </g>
     </g>
    </g>
    <g id="xtick_13">
     <g id="line2d_22">
      <g>
       <use xlink:href="#m3522d41a80" x="916.274177" y="320.4" style="stroke: #000000; stroke-width: 0.8"/>
      </g>
     </g>
     <g id="text_27">
      <!-- 120 -->
      <g transform="translate(906.730427 334.998438) scale(0.1 -0.1)">
       <use xlink:href="#DejaVuSans-31"/>
       <use xlink:href="#DejaVuSans-32" x="63.623047"/>
       <use xlink:href="#DejaVuSans-30" x="127.246094"/>
      </g>
     </g>
    </g>
    <g id="xtick_14">
     <g id="line2d_23">
      <g>
       <use xlink:href="#m3522d41a80" x="959.858846" y="320.4" style="stroke: #000000; stroke-width: 0.8"/>
      </g>
     </g>
     <g id="text_28">
      <!-- 140 -->
      <g transform="translate(950.315096 334.998438) scale(0.1 -0.1)">
       <use xlink:href="#DejaVuSans-31"/>
       <use xlink:href="#DejaVuSans-34" x="63.623047"/>
       <use xlink:href="#DejaVuSans-30" x="127.246094"/>
      </g>
     </g>
    </g>
    <g id="text_29">
     <!-- BloodPressure -->
     <g transform="translate(746.315696 348.676562) scale(0.1 -0.1)">
      <defs>
       <path id="DejaVuSans-42" d="M 1259 2228 
L 1259 519 
L 2272 519 
Q 2781 519 3026 730 
Q 3272 941 3272 1375 
Q 3272 1813 3026 2020 
Q 2781 2228 2272 2228 
L 1259 2228 
z
M 1259 4147 
L 1259 2741 
L 2194 2741 
Q 2656 2741 2882 2914 
Q 3109 3088 3109 3444 
Q 3109 3797 2882 3972 
Q 2656 4147 2194 4147 
L 1259 4147 
z
M 628 4666 
L 2241 4666 
Q 2963 4666 3353 4366 
Q 3744 4066 3744 3513 
Q 3744 3084 3544 2831 
Q 3344 2578 2956 2516 
Q 3422 2416 3680 2098 
Q 3938 1781 3938 1306 
Q 3938 681 3513 340 
Q 3088 0 2303 0 
L 628 0 
L 628 4666 
z
" transform="scale(0.015625)"/>
      </defs>
      <use xlink:href="#DejaVuSans-42"/>
      <use xlink:href="#DejaVuSans-6c" x="68.603516"/>
      <use xlink:href="#DejaVuSans-6f" x="96.386719"/>
      <use xlink:href="#DejaVuSans-6f" x="157.568359"/>
      <use xlink:href="#DejaVuSans-64" x="218.75"/>
      <use xlink:href="#DejaVuSans-50" x="282.226562"/>
      <use xlink:href="#DejaVuSans-72" x="340.779297"/>
      <use xlink:href="#DejaVuSans-65" x="379.642578"/>
      <use xlink:href="#DejaVuSans-73" x="441.166016"/>
      <use xlink:href="#DejaVuSans-73" x="493.265625"/>
      <use xlink:href="#DejaVuSans-75" x="545.365234"/>
      <use xlink:href="#DejaVuSans-72" x="608.744141"/>
      <use xlink:href="#DejaVuSans-65" x="647.607422"/>
     </g>
    </g>
   </g>
   <g id="matplotlib.axis_4">
    <g id="ytick_10">
     <g id="line2d_24">
      <g>
       <use xlink:href="#m4ee6ddc2af" x="591.545455" y="320.4" style="stroke: #000000; stroke-width: 0.8"/>
      </g>
     </g>
     <g id="text_30">
      <!-- 0.000 -->
      <g transform="translate(555.91733 324.199219) scale(0.1 -0.1)">
       <use xlink:href="#DejaVuSans-30"/>
       <use xlink:href="#DejaVuSans-2e" x="63.623047"/>
       <use xlink:href="#DejaVuSans-30" x="95.410156"/>
       <use xlink:href="#DejaVuSans-30" x="159.033203"/>
       <use xlink:href="#DejaVuSans-30" x="222.65625"/>
      </g>
     </g>
    </g>
    <g id="ytick_11">
     <g id="line2d_25">
      <g>
       <use xlink:href="#m4ee6ddc2af" x="591.545455" y="276.027775" style="stroke: #000000; stroke-width: 0.8"/>
      </g>
     </g>
     <g id="text_31">
      <!-- 0.005 -->
      <g transform="translate(555.91733 279.826994) scale(0.1 -0.1)">
       <use xlink:href="#DejaVuSans-30"/>
       <use xlink:href="#DejaVuSans-2e" x="63.623047"/>
       <use xlink:href="#DejaVuSans-30" x="95.410156"/>
       <use xlink:href="#DejaVuSans-30" x="159.033203"/>
       <use xlink:href="#DejaVuSans-35" x="222.65625"/>
      </g>
     </g>
    </g>
    <g id="ytick_12">
     <g id="line2d_26">
      <g>
       <use xlink:href="#m4ee6ddc2af" x="591.545455" y="231.655551" style="stroke: #000000; stroke-width: 0.8"/>
      </g>
     </g>
     <g id="text_32">
      <!-- 0.010 -->
      <g transform="translate(555.91733 235.45477) scale(0.1 -0.1)">
       <use xlink:href="#DejaVuSans-30"/>
       <use xlink:href="#DejaVuSans-2e" x="63.623047"/>
       <use xlink:href="#DejaVuSans-30" x="95.410156"/>
       <use xlink:href="#DejaVuSans-31" x="159.033203"/>
       <use xlink:href="#DejaVuSans-30" x="222.65625"/>
      </g>
     </g>
    </g>
    <g id="ytick_13">
     <g id="line2d_27">
      <g>
       <use xlink:href="#m4ee6ddc2af" x="591.545455" y="187.283326" style="stroke: #000000; stroke-width: 0.8"/>
      </g>
     </g>
     <g id="text_33">
      <!-- 0.015 -->
      <g transform="translate(555.91733 191.082545) scale(0.1 -0.1)">
       <use xlink:href="#DejaVuSans-30"/>
       <use xlink:href="#DejaVuSans-2e" x="63.623047"/>
       <use xlink:href="#DejaVuSans-30" x="95.410156"/>
       <use xlink:href="#DejaVuSans-31" x="159.033203"/>
       <use xlink:href="#DejaVuSans-35" x="222.65625"/>
      </g>
     </g>
    </g>
    <g id="ytick_14">
     <g id="line2d_28">
      <g>
       <use xlink:href="#m4ee6ddc2af" x="591.545455" y="142.911102" style="stroke: #000000; stroke-width: 0.8"/>
      </g>
     </g>
     <g id="text_34">
      <!-- 0.020 -->
      <g transform="translate(555.91733 146.71032) scale(0.1 -0.1)">
       <use xlink:href="#DejaVuSans-30"/>
       <use xlink:href="#DejaVuSans-2e" x="63.623047"/>
       <use xlink:href="#DejaVuSans-30" x="95.410156"/>
       <use xlink:href="#DejaVuSans-32" x="159.033203"/>
       <use xlink:href="#DejaVuSans-30" x="222.65625"/>
      </g>
     </g>
    </g>
    <g id="ytick_15">
     <g id="line2d_29">
      <g>
       <use xlink:href="#m4ee6ddc2af" x="591.545455" y="98.538877" style="stroke: #000000; stroke-width: 0.8"/>
      </g>
     </g>
     <g id="text_35">
      <!-- 0.025 -->
      <g transform="translate(555.91733 102.338096) scale(0.1 -0.1)">
       <use xlink:href="#DejaVuSans-30"/>
       <use xlink:href="#DejaVuSans-2e" x="63.623047"/>
       <use xlink:href="#DejaVuSans-30" x="95.410156"/>
       <use xlink:href="#DejaVuSans-32" x="159.033203"/>
       <use xlink:href="#DejaVuSans-35" x="222.65625"/>
      </g>
     </g>
    </g>
    <g id="ytick_16">
     <g id="line2d_30">
      <g>
       <use xlink:href="#m4ee6ddc2af" x="591.545455" y="54.166653" style="stroke: #000000; stroke-width: 0.8"/>
      </g>
     </g>
     <g id="text_36">
      <!-- 0.030 -->
      <g transform="translate(555.91733 57.965871) scale(0.1 -0.1)">
       <defs>
        <path id="DejaVuSans-33" d="M 2597 2516 
Q 3050 2419 3304 2112 
Q 3559 1806 3559 1356 
Q 3559 666 3084 287 
Q 2609 -91 1734 -91 
Q 1441 -91 1130 -33 
Q 819 25 488 141 
L 488 750 
Q 750 597 1062 519 
Q 1375 441 1716 441 
Q 2309 441 2620 675 
Q 2931 909 2931 1356 
Q 2931 1769 2642 2001 
Q 2353 2234 1838 2234 
L 1294 2234 
L 1294 2753 
L 1863 2753 
Q 2328 2753 2575 2939 
Q 2822 3125 2822 3475 
Q 2822 3834 2567 4026 
Q 2313 4219 1838 4219 
Q 1578 4219 1281 4162 
Q 984 4106 628 3988 
L 628 4550 
Q 988 4650 1302 4700 
Q 1616 4750 1894 4750 
Q 2613 4750 3031 4423 
Q 3450 4097 3450 3541 
Q 3450 3153 3228 2886 
Q 3006 2619 2597 2516 
z
" transform="scale(0.015625)"/>
       </defs>
       <use xlink:href="#DejaVuSans-30"/>
       <use xlink:href="#DejaVuSans-2e" x="63.623047"/>
       <use xlink:href="#DejaVuSans-30" x="95.410156"/>
       <use xlink:href="#DejaVuSans-33" x="159.033203"/>
       <use xlink:href="#DejaVuSans-30" x="222.65625"/>
      </g>
     </g>
    </g>
    <g id="text_37">
     <!-- Probability -->
     <g transform="translate(549.837642 208.228906) rotate(-90) scale(0.1 -0.1)">
      <use xlink:href="#DejaVuSans-50"/>
      <use xlink:href="#DejaVuSans-72" x="58.552734"/>
      <use xlink:href="#DejaVuSans-6f" x="97.416016"/>
      <use xlink:href="#DejaVuSans-62" x="158.597656"/>
      <use xlink:href="#DejaVuSans-61" x="222.074219"/>
      <use xlink:href="#DejaVuSans-62" x="283.353516"/>
      <use xlink:href="#DejaVuSans-69" x="346.830078"/>
      <use xlink:href="#DejaVuSans-6c" x="374.613281"/>
      <use xlink:href="#DejaVuSans-69" x="402.396484"/>
      <use xlink:href="#DejaVuSans-74" x="430.179688"/>
      <use xlink:href="#DejaVuSans-79" x="469.388672"/>
     </g>
    </g>
   </g>
   <g id="patch_11">
    <path d="M 591.545455 320.4 
L 591.545455 43.2 
" style="fill: none; stroke: #000000; stroke-width: 0.8; stroke-linejoin: miter; stroke-linecap: square"/>
   </g>
   <g id="patch_12">
    <path d="M 972 320.4 
L 972 43.2 
" style="fill: none; stroke: #000000; stroke-width: 0.8; stroke-linejoin: miter; stroke-linecap: square"/>
   </g>
   <g id="patch_13">
    <path d="M 591.545455 320.4 
L 972 320.4 
" style="fill: none; stroke: #000000; stroke-width: 0.8; stroke-linejoin: miter; stroke-linecap: square"/>
   </g>
   <g id="patch_14">
    <path d="M 591.545455 43.2 
L 972 43.2 
" style="fill: none; stroke: #000000; stroke-width: 0.8; stroke-linejoin: miter; stroke-linecap: square"/>
   </g>
   <g id="text_38">
    <!-- Lowest discriminative power -->
    <g transform="translate(696.14054 37.2) scale(0.12 -0.12)">
     <defs>
      <path id="DejaVuSans-4c" d="M 628 4666 
L 1259 4666 
L 1259 531 
L 3531 531 
L 3531 0 
L 628 0 
L 628 4666 
z
" transform="scale(0.015625)"/>
     </defs>
     <use xlink:href="#DejaVuSans-4c"/>
     <use xlink:href="#DejaVuSans-6f" x="53.962891"/>
     <use xlink:href="#DejaVuSans-77" x="115.144531"/>
     <use xlink:href="#DejaVuSans-65" x="196.931641"/>
     <use xlink:href="#DejaVuSans-73" x="258.455078"/>
     <use xlink:href="#DejaVuSans-74" x="310.554688"/>
     <use xlink:href="#DejaVuSans-20" x="349.763672"/>
     <use xlink:href="#DejaVuSans-64" x="381.550781"/>
     <use xlink:href="#DejaVuSans-69" x="445.027344"/>
     <use xlink:href="#DejaVuSans-73" x="472.810547"/>
     <use xlink:href="#DejaVuSans-63" x="524.910156"/>
     <use xlink:href="#DejaVuSans-72" x="579.890625"/>
     <use xlink:href="#DejaVuSans-69" x="621.003906"/>
     <use xlink:href="#DejaVuSans-6d" x="648.787109"/>
     <use xlink:href="#DejaVuSans-69" x="746.199219"/>
     <use xlink:href="#DejaVuSans-6e" x="773.982422"/>
     <use xlink:href="#DejaVuSans-61" x="837.361328"/>
     <use xlink:href="#DejaVuSans-74" x="898.640625"/>
     <use xlink:href="#DejaVuSans-69" x="937.849609"/>
     <use xlink:href="#DejaVuSans-76" x="965.632812"/>
     <use xlink:href="#DejaVuSans-65" x="1024.8125"/>
     <use xlink:href="#DejaVuSans-20" x="1086.335938"/>
     <use xlink:href="#DejaVuSans-70" x="1118.123047"/>
     <use xlink:href="#DejaVuSans-6f" x="1181.599609"/>
     <use xlink:href="#DejaVuSans-77" x="1242.78125"/>
     <use xlink:href="#DejaVuSans-65" x="1324.568359"/>
     <use xlink:href="#DejaVuSans-72" x="1386.091797"/>
    </g>
   </g>
   <g id="legend_2">
    <g id="patch_15">
     <path d="M 888.609375 80.55625 
L 965 80.55625 
Q 967 80.55625 967 78.55625 
L 967 50.2 
Q 967 48.2 965 48.2 
L 888.609375 48.2 
Q 886.609375 48.2 886.609375 50.2 
L 886.609375 78.55625 
Q 886.609375 80.55625 888.609375 80.55625 
z
" style="fill: #ffffff; opacity: 0.8; stroke: #cccccc; stroke-linejoin: miter"/>
    </g>
    <g id="patch_16">
     <path d="M 890.609375 59.798437 
L 910.609375 59.798437 
L 910.609375 52.798437 
L 890.609375 52.798437 
z
" style="fill: #ff7f0e; fill-opacity: 0.25; stroke: #ff7f0e; stroke-linejoin: miter"/>
    </g>
    <g id="text_39">
     <!-- Normal -->
     <g transform="translate(918.609375 59.798437) scale(0.1 -0.1)">
      <use xlink:href="#DejaVuSans-4e"/>
      <use xlink:href="#DejaVuSans-6f" x="74.804688"/>
      <use xlink:href="#DejaVuSans-72" x="135.986328"/>
      <use xlink:href="#DejaVuSans-6d" x="175.349609"/>
      <use xlink:href="#DejaVuSans-61" x="272.761719"/>
      <use xlink:href="#DejaVuSans-6c" x="334.041016"/>
     </g>
    </g>
    <g id="patch_17">
     <path d="M 890.609375 74.476562 
L 910.609375 74.476562 
L 910.609375 67.476562 
L 890.609375 67.476562 
z
" style="fill: #1f77b4; fill-opacity: 0.25; stroke: #1f77b4; stroke-linejoin: miter"/>
    </g>
    <g id="text_40">
     <!-- Diabetes -->
     <g transform="translate(918.609375 74.476562) scale(0.1 -0.1)">
      <use xlink:href="#DejaVuSans-44"/>
      <use xlink:href="#DejaVuSans-69" x="77.001953"/>
      <use xlink:href="#DejaVuSans-61" x="104.785156"/>
      <use xlink:href="#DejaVuSans-62" x="166.064453"/>
      <use xlink:href="#DejaVuSans-65" x="229.541016"/>
      <use xlink:href="#DejaVuSans-74" x="291.064453"/>
      <use xlink:href="#DejaVuSans-65" x="330.273438"/>
      <use xlink:href="#DejaVuSans-73" x="391.796875"/>
     </g>
    </g>
   </g>
  </g>
 </g>
 <defs>
  <clipPath id="pca1bd21775">
   <rect x="135" y="43.2" width="380.454545" height="277.2"/>
  </clipPath>
  <clipPath id="p4a921069bd">
   <rect x="591.545455" y="43.2" width="380.454545" height="277.2"/>
  </clipPath>
 </defs>
</svg>
